<?xml version="1.0" standalone="no"?>
<!DOCTYPE svg PUBLIC "-//W3C//DTD SVG 20010904//EN"
 "http://www.w3.org/TR/2001/REC-SVG-20010904/DTD/svg10.dtd">
<svg version="1.0" xmlns="http://www.w3.org/2000/svg"
 width="640.000000pt" height="640.000000pt" viewBox="0 0 640.000000 640.000000"
 preserveAspectRatio="xMidYMid meet">

<g transform="translate(0.000000,640.000000) scale(0.100000,-0.100000)"
fill="#000000" stroke="none">
<path d="M3206 6237 c15 -32 16 -37 1 -51 -9 -9 -33 -16 -56 -16 -23 0 -41 -4
-41 -10 0 -5 25 -10 55 -10 l55 0 2 -32 c4 -78 -5 -97 -44 -98 -21 0 -40 33
-32 55 4 9 19 19 35 22 31 6 40 23 13 23 -31 0 -74 -33 -74 -57 0 -35 36 -65
73 -61 27 2 33 -1 35 -19 2 -13 8 -23 13 -23 5 0 9 40 9 89 0 89 12 122 32 87
14 -24 37 -20 31 5 -4 16 -2 20 8 17 18 -6 24 -65 8 -84 -17 -21 14 -55 33
-36 7 7 25 12 40 12 24 0 28 -4 29 -27 1 -16 1 -34 0 -40 -1 -7 5 -13 13 -13
12 0 16 18 18 91 l3 91 70 2 70 1 3 -57 c3 -54 1 -59 -23 -70 -21 -9 -29 -9
-42 4 -24 25 -10 68 22 68 14 0 25 5 25 10 0 13 -21 13 -53 1 -33 -13 -43 -46
-23 -76 13 -20 25 -25 56 -25 33 0 40 -3 40 -20 0 -11 6 -20 14 -20 10 0 14
21 15 92 1 60 6 95 14 100 7 4 -48 8 -120 8 -82 0 -133 -4 -133 -10 0 -5 6 -9
13 -7 8 1 12 -11 12 -38 0 -36 -3 -40 -27 -43 -30 -4 -42 18 -34 62 6 36 -32
63 -64 46 -34 -18 -51 -8 -70 40 -9 24 -22 46 -29 48 -7 2 -5 -9 5 -31z"/>
<path d="M1555 6228 c-29 -17 -45 -41 -41 -61 4 -16 -24 -31 -50 -26 -5 1 -19
1 -31 0 -25 -1 -32 -21 -8 -21 16 0 20 -35 9 -64 -8 -20 -38 -21 -53 -2 -9 11
-10 20 -1 35 8 17 7 24 -11 42 -18 18 -23 19 -42 6 -16 -10 -22 -25 -22 -49 0
-19 -6 -42 -14 -51 -12 -15 -11 -17 2 -17 9 0 19 5 22 10 10 16 55 12 61 -5 4
-9 -4 -23 -17 -34 -37 -30 -16 -35 26 -6 49 33 55 32 55 -10 0 -19 5 -35 10
-35 6 0 10 35 10 85 0 80 2 86 23 94 31 12 37 -2 37 -96 0 -67 3 -83 15 -83
12 0 15 17 15 90 0 73 3 92 16 97 29 11 45 -18 33 -62 -10 -34 -9 -41 7 -52
16 -12 20 -11 30 2 15 20 60 19 68 -1 3 -9 6 -29 6 -45 0 -16 4 -29 10 -29 5
0 11 42 12 93 l3 92 68 3 c59 3 67 1 68 -15 0 -10 1 -35 2 -57 2 -31 -2 -41
-20 -49 -16 -7 -27 -6 -38 3 -30 25 -11 70 29 70 15 0 17 3 8 12 -16 16 -59
-5 -74 -37 -10 -22 -8 -29 12 -50 16 -17 34 -25 57 -25 27 0 33 -4 33 -21 0
-11 5 -17 10 -14 6 3 10 27 10 53 0 52 7 69 30 72 40 6 43 1 37 -52 l-6 -51
19 21 c30 32 26 74 -10 95 -16 10 -38 17 -47 15 -11 -2 -18 3 -18 12 0 10 16
17 54 23 30 4 57 10 60 12 2 3 -62 5 -142 5 -146 0 -147 0 -163 26 -20 29 -83
64 -116 64 -13 0 -32 -6 -43 -12z m112 -35 c45 -30 29 -43 -52 -43 -68 0 -75
2 -75 19 0 48 71 60 127 24z m33 -103 c0 -38 -2 -40 -30 -40 -34 0 -45 17 -36
55 5 20 13 25 36 25 28 0 30 -2 30 -40z m-342 13 c-5 -25 -28 -28 -28 -4 0 12
6 21 16 21 9 0 14 -7 12 -17z"/>
<path d="M3144 6225 c11 -8 24 -15 30 -15 5 0 1 7 -10 15 -10 8 -23 14 -29 14
-5 0 -1 -6 9 -14z"/>
<path d="M2927 6184 c-9 -9 -9 -100 -1 -131 14 -53 31 -12 37 87 1 33 -2 45
-13 47 -9 2 -19 1 -23 -3z"/>
<path d="M3796 6174 c-19 -19 -20 -26 -4 -42 19 -19 29 -14 22 13 -5 19 -2 25
10 25 12 0 16 -10 16 -44 0 -27 -5 -46 -12 -49 -10 -3 -10 -7 1 -20 15 -19 41
-23 41 -7 0 6 13 10 29 10 31 0 41 -14 41 -61 0 -16 4 -29 10 -29 5 0 11 42
12 93 3 92 3 92 30 95 l27 3 3 -92 c2 -61 7 -94 15 -96 9 -3 13 21 15 89 l3
93 58 3 57 3 0 -36 c0 -43 -22 -56 -50 -30 -35 32 -23 -5 22 -64 23 -31 44
-58 45 -60 2 -2 6 -2 9 2 3 3 -3 19 -15 35 -25 36 -27 58 -5 70 9 5 19 24 23
43 l7 34 83 3 c81 3 82 2 79 -20 -3 -20 -10 -24 -57 -28 -60 -6 -78 -22 -68
-61 7 -26 46 -74 54 -65 3 2 -5 18 -18 35 -19 26 -21 34 -11 56 11 23 17 26
55 23 l42 -3 5 -58 c8 -91 25 -73 28 31 l3 92 29 0 30 0 0 -96 c0 -72 3 -95
13 -91 8 2 12 31 13 91 0 64 4 90 15 97 8 5 -105 9 -290 9 -253 0 -302 -2
-287 -13 22 -16 18 -65 -5 -80 -29 -18 -49 -1 -49 42 0 40 -20 71 -45 71 -7 0
-21 -7 -29 -16z"/>
<path d="M4577 6170 c-5 -20 0 -92 9 -119 9 -28 22 5 29 72 7 63 6 67 -13 67
-11 0 -22 -8 -25 -20z"/>
<path d="M4717 6182 c-8 -12 5 -142 14 -142 13 0 16 11 24 83 6 63 5 67 -14
67 -11 0 -22 -3 -24 -8z"/>
<path d="M2473 6162 c-217 -1 -343 -6 -343 -12 0 -6 39 -10 95 -10 95 0 95 0
95 -25 0 -23 -4 -25 -41 -25 -35 0 -40 -2 -34 -17 13 -31 11 -55 -7 -66 -14
-9 -22 -7 -42 12 -13 12 -27 34 -31 48 -4 19 -9 23 -17 15 -15 -15 21 -73 56
-91 41 -19 76 -2 76 39 0 18 6 33 15 37 22 8 24 4 28 -57 2 -30 9 -56 15 -58
8 -2 12 26 14 90 l3 93 76 3 c63 2 78 0 83 -14 10 -27 -3 -34 -59 -34 -64 0
-76 -12 -44 -47 l24 -25 5 24 c4 17 14 24 37 26 27 3 31 0 37 -29 3 -17 6 -43
6 -56 0 -15 5 -23 13 -20 9 3 11 26 8 85 -3 81 -3 82 24 92 33 12 142 13 149
1 15 -24 -7 -41 -53 -41 -53 0 -71 -12 -71 -50 0 -28 53 -100 65 -88 4 4 0 15
-10 24 -22 23 -36 60 -28 79 4 12 17 15 52 13 l46 -3 3 -58 c5 -88 26 -69 23
21 -3 91 3 112 35 112 24 0 24 -1 24 -95 0 -78 3 -95 15 -95 12 0 15 17 15 90
0 74 3 91 18 99 9 6 15 11 12 11 -19 4 -83 5 -387 2z"/>
<path d="M4580 5960 c0 -5 7 -10 15 -10 8 0 15 5 15 10 0 6 -7 10 -15 10 -8 0
-15 -4 -15 -10z"/>
<path d="M4720 5960 c0 -5 4 -10 9 -10 6 0 13 5 16 10 3 6 -1 10 -9 10 -9 0
-16 -4 -16 -10z"/>
<path d="M2925 5950 c-3 -5 3 -10 15 -10 12 0 18 5 15 10 -3 6 -10 10 -15 10
-5 0 -12 -4 -15 -10z"/>
<path d="M2815 5679 c-145 -11 -243 -25 -400 -60 -131 -28 -366 -101 -453
-140 -160 -72 -339 -165 -412 -215 -72 -49 -254 -187 -270 -204 -3 -3 -47 -41
-97 -83 -51 -43 -98 -86 -105 -96 -7 -10 -38 -45 -68 -78 -131 -142 -147 -162
-251 -313 -113 -164 -215 -364 -294 -577 -220 -595 -230 -1220 -32 -1843 48
-150 183 -435 275 -578 31 -49 32 -55 18 -71 -15 -17 -22 -41 -11 -41 3 0 25
10 48 22 66 35 186 29 517 -27 353 -59 528 -72 795 -57 262 15 467 37 645 68
105 19 184 26 285 27 159 2 255 -10 470 -59 224 -52 500 -78 785 -76 185 1
268 10 510 53 158 28 423 32 510 7 62 -18 75 -15 43 12 -13 10 -23 22 -23 27
0 5 27 52 60 104 64 99 173 307 211 400 96 240 167 513 189 729 27 268 19 619
-16 695 l-14 30 4 -27 c4 -33 -11 -38 -16 -5 -2 12 -9 21 -17 19 -8 -2 -18 3
-22 10 -6 10 -11 9 -21 -5 -13 -17 -15 -17 -41 7 -16 15 -25 31 -22 36 4 6 -3
22 -14 36 -12 15 -21 34 -21 43 0 9 -7 24 -15 35 -7 10 -17 43 -21 72 -7 57
-44 147 -44 108 0 -12 9 -46 19 -77 11 -30 21 -78 23 -106 2 -28 7 -53 11 -57
11 -12 8 -146 -3 -139 -6 3 -10 -4 -10 -17 -1 -21 -2 -22 -14 -5 -7 9 -21 17
-30 17 -18 0 -22 -15 -6 -25 13 -8 13 -35 1 -35 -5 0 -13 10 -17 23 -7 21 -7
21 -14 2 -7 -19 -8 -18 -20 8 -7 15 -17 27 -22 27 -5 0 -6 -6 -2 -12 5 -8 1
-8 -10 1 -14 12 -19 12 -26 2 -5 -10 -11 -5 -19 15 l-11 29 4 -30 c6 -41 -23
-79 -62 -81 -23 -1 -32 4 -35 18 -7 23 -32 19 -32 -5 0 -9 -3 -17 -7 -17 -29
0 -30 0 -19 14 8 10 9 16 1 21 -5 3 -14 -4 -19 -17 -9 -22 -10 -22 -11 7 -1
28 -2 28 -12 10 -6 -11 -18 -25 -26 -31 -12 -8 -10 -13 12 -27 30 -20 33 -43
10 -75 -11 -15 -12 -22 -3 -22 24 0 -1 -13 -30 -15 -18 -2 -32 3 -35 12 -3 8
-10 12 -14 9 -5 -3 -7 5 -5 19 4 19 1 23 -13 21 -11 -2 -13 -1 -6 1 6 3 12 9
12 14 0 6 4 8 9 4 6 -3 15 4 21 15 7 13 7 20 0 20 -5 0 -10 -6 -11 -12 0 -7
-4 -3 -9 10 -5 12 -16 22 -25 22 -8 0 -15 5 -15 10 0 6 -7 10 -16 10 -12 0
-15 6 -10 26 6 21 4 25 -8 21 -9 -4 -16 3 -20 19 -8 30 -30 27 -34 -5 -3 -16
2 -24 17 -28 24 -6 28 -23 6 -23 -9 0 -18 -7 -21 -15 -8 -21 -52 -19 -57 3 -3
9 -2 -5 1 -33 2 -27 4 -59 4 -70 -1 -11 2 -15 6 -10 4 6 25 11 47 12 40 2 36
-2 -22 -22 -21 -7 -22 -12 -22 -139 0 -116 -15 -308 -25 -325 -3 -3 -9 -40
-15 -81 -24 -173 -156 -489 -278 -665 -144 -207 -344 -402 -542 -528 -60 -39
-83 -36 -356 32 -263 66 -428 84 -695 78 -200 -5 -247 -9 -430 -41 -113 -20
-274 -43 -359 -51 l-155 -15 -40 24 c-168 99 -416 340 -538 525 -98 146 -195
365 -228 511 -7 30 -18 76 -26 102 -24 80 -58 383 -50 444 3 22 8 86 11 144
11 201 80 441 191 664 148 296 421 588 709 758 86 50 250 129 321 152 43 15
88 31 99 36 11 5 66 18 122 30 293 60 647 50 912 -26 61 -17 88 -21 95 -14 8
8 7 10 -4 5 -11 -4 -16 2 -18 19 -1 14 3 28 8 31 15 9 12 35 -4 35 -9 0 -16
-12 -18 -32 -2 -25 -8 -32 -27 -33 -16 -1 -25 4 -29 17 -2 10 -11 18 -19 18
-8 0 -11 -4 -8 -10 3 -5 -3 -10 -15 -10 -13 0 -19 4 -14 11 3 6 0 15 -7 20 -9
6 -1 9 25 9 25 0 43 -6 52 -17 11 -15 13 -16 14 -2 0 8 -14 22 -32 30 -41 18
-59 46 -38 59 8 5 11 12 7 16 -11 11 -37 -28 -34 -51 2 -22 -25 -55 -45 -55
-9 0 -10 3 -2 8 6 4 10 14 8 22 -11 47 -9 55 14 58 14 2 22 9 19 16 -3 7 -1
19 5 27 8 11 9 11 5 -2 -4 -12 2 -16 24 -16 35 0 37 9 7 22 -19 8 -22 17 -20
45 l3 35 -20 -22 c-10 -13 -24 -23 -31 -23 -16 0 -57 42 -63 65 -4 14 -5 12
-4 -6 3 -40 -19 -59 -56 -52 -34 7 -48 19 -41 38 3 7 -7 12 -27 12 -22 0 -39
8 -55 26 -20 23 -24 25 -32 11 -6 -12 -9 -8 -9 16 0 21 3 27 9 18 6 -8 7 -1 3
18 -5 25 0 38 20 63 15 17 34 31 43 32 10 1 -1 7 -23 14 -63 19 -65 15 -65
-100 0 -112 -3 -118 -54 -120 -41 -1 -46 9 -39 79 5 44 3 57 -5 52 -7 -4 -12
-3 -12 3 0 5 5 11 11 13 8 3 10 16 5 41 -10 55 -25 45 -23 -17 1 -32 -4 -61
-12 -70 -8 -9 -11 -20 -7 -23 4 -4 11 -1 16 7 8 13 10 12 10 -2 0 -10 -4 -18
-10 -18 -5 0 -10 -7 -10 -16 0 -8 -4 -13 -10 -9 -5 3 -7 12 -3 20 3 8 1 15 -5
15 -5 0 -13 -10 -16 -22 -6 -21 -8 -21 -19 -7 -7 10 -29 24 -48 32 -46 19 -79
61 -79 100 0 24 -3 28 -12 19 -8 -8 -11 -44 -10 -106 l2 -94 -41 -4 c-27 -2
-43 1 -46 9 -3 8 -14 11 -29 7 -91 -23 -178 105 -112 166 28 25 23 29 -29 18
-46 -10 -55 -23 -23 -33 11 -3 20 -11 20 -17 0 -6 -6 -5 -16 3 -13 11 -15 9
-10 -12 20 -86 26 -118 26 -146 0 -29 -4 -33 -36 -39 -19 -3 -39 -3 -44 2 -4
5 -13 44 -19 87 -13 90 -25 120 -49 115 -14 -3 -16 -13 -14 -51 3 -30 -1 -54
-10 -64 -8 -10 -9 -18 -3 -20 6 -2 25 -12 43 -23 32 -20 32 -21 16 -45 -9 -14
-21 -25 -26 -25 -21 0 -158 105 -158 121 0 31 12 49 31 49 10 0 19 5 19 11 0
8 -13 9 -40 5 -37 -6 -41 -4 -51 20 -5 15 -6 31 -2 35 10 9 187 65 267 85 261
63 599 74 898 29 84 -13 164 -26 178 -29 14 -4 20 -4 13 0 -7 3 -10 11 -7 19
3 8 -4 16 -18 20 -13 4 -26 13 -30 19 -12 18 -9 61 6 81 13 18 14 18 42 0 16
-11 31 -19 34 -18 3 1 6 -8 7 -20 1 -12 6 -44 10 -71 l8 -49 70 -23 c39 -12
93 -31 121 -43 29 -11 54 -17 58 -14 3 4 6 2 6 -3 0 -6 25 -18 55 -29 30 -10
55 -21 55 -24 0 -4 29 -20 64 -35 l64 -29 -1 -65 c0 -44 4 -67 12 -70 9 -3 9
-7 1 -17 -7 -8 -7 -15 -1 -19 5 -4 12 -2 16 4 8 13 35 13 35 0 0 -5 -15 -14
-32 -19 -18 -5 -25 -10 -15 -10 18 -1 23 -16 8 -25 -5 -4 -12 0 -15 6 -3 7 -3
2 0 -12 5 -24 4 -24 -8 -5 -7 11 -12 27 -13 35 0 8 -8 16 -17 18 -13 3 -16 -2
-12 -22 5 -30 -2 -32 -29 -8 -11 9 -17 11 -13 4 4 -7 3 -19 -3 -26 -6 -7 -12
-23 -14 -37 -3 -17 -10 -24 -26 -23 -17 1 -26 -9 -38 -38 -21 -53 -33 -47 -33
17 0 30 -4 55 -10 55 -5 0 -7 -7 -4 -15 4 -8 1 -15 -5 -15 -8 0 -10 11 -6 34
5 23 2 43 -10 62 -9 16 -14 21 -11 11 3 -10 -1 -25 -9 -33 -13 -13 -17 -13
-37 5 -12 12 -27 21 -34 21 -6 0 -24 12 -39 28 -16 15 -26 20 -23 11 8 -20
-30 -45 -45 -30 -14 14 -77 15 -77 1 0 -5 7 -13 15 -17 8 -5 26 -30 40 -57 20
-37 23 -51 14 -57 -9 -5 -2 -12 22 -23 73 -32 156 -69 193 -87 43 -21 71 -25
61 -9 -3 6 -15 10 -26 10 -10 0 -19 5 -19 10 0 14 33 12 49 -2 11 -10 14 -10
18 0 9 24 63 2 63 -26 0 -9 29 -16 115 -26 22 -2 53 -8 69 -12 21 -5 27 -4 22
5 -4 6 -13 11 -19 11 -18 0 -19 47 -2 81 17 33 17 45 -2 41 -7 -2 -13 5 -13
15 -1 17 -1 17 -11 -1 -6 -10 -9 -35 -6 -55 3 -20 3 -30 0 -23 -2 6 -13 12
-23 12 -19 0 -47 37 -36 47 3 4 2 11 -4 17 -15 19 10 94 38 116 29 24 61 26
88 5 29 -22 40 -18 11 5 -14 11 -35 20 -47 20 -15 0 -20 5 -17 14 3 8 1 16 -5
18 -13 5 17 68 33 68 24 0 253 -168 325 -238 28 -27 28 -30 9 -56 -19 -25 -19
-40 0 -32 18 6 19 1 4 -25 -5 -11 -14 -17 -19 -14 -6 3 -7 -1 -3 -11 5 -15 3
-14 -23 2 -16 10 -33 23 -37 29 -4 5 -5 -2 -1 -17 6 -25 -12 -75 -23 -64 -3 3
0 12 6 20 7 8 10 20 6 25 -8 15 -47 -27 -39 -42 4 -7 3 -9 -1 -4 -11 9 -45
-22 -45 -41 0 -11 3 -12 14 -3 11 9 12 7 9 -12 -4 -22 -9 -24 -57 -22 -30 1
-58 5 -64 9 -6 3 -13 0 -15 -6 -3 -7 -6 -3 -6 9 -1 12 7 27 17 32 15 9 15 10
1 11 -9 0 -20 8 -24 18 -6 16 -7 16 -16 0 -6 -11 -16 -15 -27 -11 -16 6 -16 6
0 -11 25 -24 34 -66 18 -76 -9 -6 -18 0 -28 18 -19 37 -43 62 -59 62 -8 0 -11
5 -8 10 4 6 -4 19 -17 30 -26 22 -38 25 -38 10 0 -5 6 -10 14 -10 8 0 14 -10
14 -24 0 -18 -5 -23 -17 -19 -9 3 -6 -2 7 -11 12 -10 26 -15 31 -12 5 4 17 3
27 -1 16 -6 16 -7 -2 -14 -18 -7 -18 -8 4 -15 12 -3 22 -11 22 -18 0 -6 20
-25 43 -43 23 -18 63 -52 90 -76 26 -24 47 -42 47 -40 0 3 12 -10 28 -29 15
-18 46 -53 69 -78 24 -25 43 -48 43 -52 0 -4 14 -23 31 -43 25 -28 34 -33 45
-24 15 13 19 49 5 49 -4 0 -6 11 -3 25 4 25 -11 35 -23 15 -7 -12 -35 5 -35
21 0 10 52 59 62 59 4 0 9 -10 11 -22 4 -20 4 -20 5 -3 2 31 -11 45 -46 50
-18 2 -30 0 -27 -6 11 -17 -6 -31 -21 -18 -16 13 -19 79 -4 79 6 0 10 -7 10
-16 0 -29 25 -8 26 22 0 16 1 40 3 54 2 23 3 24 12 5 7 -15 8 -9 5 23 -2 23
-1 42 2 42 4 0 12 12 19 26 10 22 9 25 -4 22 -9 -2 -22 -21 -29 -43 -9 -29
-12 -34 -13 -17 -2 36 30 84 51 78 24 -6 34 12 15 27 -19 15 -33 77 -18 77 6
0 11 -16 11 -36 0 -22 4 -33 11 -29 6 4 8 13 5 20 -2 7 1 16 8 18 8 3 11 17 8
39 -4 27 -2 31 9 20 10 -9 11 -21 2 -54 l-11 -42 19 24 c10 14 19 39 20 55 l2
30 4 -27 c3 -17 11 -28 20 -28 9 0 22 -8 30 -17 14 -17 14 -17 9 1 -5 13 -2
17 8 13 13 -5 15 5 13 58 -2 60 -4 65 -25 65 -19 0 -21 2 -10 19 10 16 8 28
-10 65 -22 43 -24 44 -60 39 -36 -6 -37 -6 -19 14 9 11 17 25 17 31 0 16 -27
15 -36 0 -9 -14 -24 21 -17 40 8 19 50 15 56 -6 2 -11 17 -21 33 -25 16 -3 39
-15 50 -26 12 -11 24 -18 27 -15 2 2 16 -11 31 -31 15 -19 32 -35 39 -35 7 0
21 -11 31 -25 10 -14 27 -25 38 -25 10 0 26 -13 36 -29 9 -17 24 -32 33 -34 9
-3 25 -21 34 -41 10 -20 25 -42 35 -49 9 -7 20 -22 24 -35 5 -13 10 -21 14
-18 3 3 11 -3 19 -14 23 -33 40 -24 47 26 3 26 11 53 17 61 22 26 0 25 -26 -1
-28 -28 -45 -33 -45 -13 0 8 -4 7 -10 -3 -8 -12 -10 -10 -10 8 0 22 -51 82
-69 82 -4 0 -13 12 -19 26 -10 20 -9 28 3 40 13 14 15 13 15 -7 0 -19 2 -20
17 -8 12 10 15 10 9 1 -6 -10 -2 -10 21 0 15 7 34 18 41 25 16 16 30 17 15 2
-12 -12 -6 -49 8 -49 5 0 9 -7 9 -15 0 -8 -4 -15 -10 -15 -11 0 -14 -29 -2
-31 28 -5 52 -5 52 -1 0 3 -8 14 -17 24 -12 14 -14 24 -7 36 5 9 8 27 6 38 -4
26 -97 128 -109 121 -5 -3 -15 -1 -23 4 -13 8 -13 10 0 19 12 8 -3 27 -80 100
-52 49 -98 90 -102 90 -4 0 -33 23 -65 51 -95 84 -367 259 -402 259 -10 0 -26
10 -37 21 -46 52 -372 179 -601 234 -313 76 -559 97 -868 74z m305 -249 c0 -5
-7 -7 -15 -4 -8 4 -15 8 -15 10 0 2 7 4 15 4 8 0 15 -4 15 -10z m930 -204 c0
-3 -4 -8 -10 -11 -5 -3 -10 -1 -10 4 0 6 5 11 10 11 6 0 10 -2 10 -4z m190
-45 c30 -22 38 -71 16 -94 -19 -19 -20 -33 -3 -41 6 -3 0 -3 -14 0 -20 4 -34
-3 -67 -35 -23 -23 -47 -41 -52 -41 -17 0 -23 29 -10 45 7 8 16 30 20 48 4 17
12 31 18 30 6 -2 9 4 6 12 -7 17 -34 21 -34 5 0 -5 -6 -10 -14 -10 -8 0 -17
-8 -19 -17 -4 -14 -5 -13 -6 4 0 13 7 27 18 33 14 7 18 17 15 37 -3 15 -7 30
-10 35 -3 4 2 8 10 8 9 0 16 -4 16 -9 0 -5 8 -8 18 -6 9 2 22 4 27 4 6 1 3 6
-5 12 -11 8 -8 9 15 4 17 -3 41 -14 55 -24z m-180 9 c0 -5 -5 -10 -11 -10 -5
0 -7 5 -4 10 3 6 8 10 11 10 2 0 4 -4 4 -10z m-912 -36 c-10 -10 -28 6 -28 24
0 15 1 15 17 -1 9 -9 14 -19 11 -23z m-1278 -16 c0 -19 -2 -20 -10 -8 -13 19
-13 30 0 30 6 0 10 -10 10 -22z m-30 2 c0 -5 -4 -10 -10 -10 -5 0 -10 5 -10
10 0 6 5 10 10 10 6 0 10 -4 10 -10z m-46 -25 c-4 -8 -7 -15 -9 -15 -2 0 -5 7
-9 15 -3 9 0 15 9 15 9 0 12 -6 9 -15z m278 -50 c8 -19 8 -28 -2 -40 -8 -10
-10 -19 -4 -23 5 -4 10 -18 12 -30 2 -13 18 -53 37 -88 l32 -64 -27 -20 c-35
-25 -47 -25 -62 -1 -11 18 -14 18 -44 4 -22 -11 -44 -13 -69 -9 -60 12 -121
86 -70 86 16 0 29 30 17 42 -9 9 -77 -15 -87 -32 -4 -6 19 -51 49 -100 31 -50
56 -94 56 -99 0 -15 -50 -42 -68 -37 -9 3 -23 18 -30 33 -7 16 -21 39 -32 53
l-20 25 3 -25 c1 -14 6 -30 10 -37 11 -18 -67 -40 -86 -24 -12 9 -13 7 -10
-14 6 -30 20 -42 53 -47 28 -4 40 -35 16 -44 -9 -3 -37 -3 -63 1 -58 8 -106
51 -100 90 4 30 51 85 73 85 8 0 14 5 14 10 0 6 3 9 8 8 13 -5 63 40 52 47 -5
3 -36 -13 -68 -37 -31 -24 -70 -52 -87 -62 -53 -34 -56 -46 -24 -91 16 -22 45
-58 64 -80 19 -22 35 -45 35 -52 0 -6 -12 -21 -27 -33 l-28 -22 -40 44 c-22
24 -55 61 -73 82 -33 36 -35 37 -53 20 -19 -17 -17 -20 63 -102 l82 -84 -27
-16 c-15 -9 -27 -20 -27 -24 0 -5 -9 -8 -19 -8 -12 0 -21 -9 -25 -25 -17 -68
-156 -89 -156 -24 0 12 -9 19 -26 21 -43 5 -53 32 -24 63 39 42 10 28 -33 -16
l-40 -40 34 -29 c19 -16 37 -29 40 -30 4 0 22 -13 40 -30 19 -16 42 -32 52
-36 21 -7 22 -18 2 -34 -9 -7 -14 -19 -11 -26 3 -8 -5 -11 -25 -10 -16 1 -29
-3 -29 -9 0 -6 -14 -24 -30 -40 -24 -23 -39 -29 -71 -28 -63 3 -89 25 -89 76
1 66 32 93 80 67 17 -9 17 -12 3 -40 -8 -17 -12 -38 -8 -48 6 -16 8 -15 21 2
26 36 18 81 -20 110 l-34 26 -33 -53 c-19 -28 -42 -61 -51 -71 -27 -29 -22
-38 33 -71 105 -62 130 -84 120 -103 -32 -58 -30 -58 -121 -2 -47 29 -89 55
-94 58 -5 3 -6 0 -3 -5 10 -16 -27 -22 -46 -8 -20 14 -22 36 -4 54 10 10 8 12
-8 9 -11 -3 -32 1 -46 8 -49 24 -42 109 13 163 38 37 122 81 155 81 39 0 26
-28 -22 -49 -80 -35 -124 -105 -96 -150 13 -20 37 -7 57 31 26 50 134 211 153
228 10 9 20 21 22 27 8 22 124 150 232 256 98 95 300 260 367 298 94 53 257
138 268 138 7 1 17 -10 24 -24z m-187 -25 c3 -5 1 -10 -4 -10 -6 0 -11 5 -11
10 0 6 2 10 4 10 3 0 8 -4 11 -10z m2520 0 c3 -5 2 -10 -4 -10 -5 0 -13 5 -16
10 -3 6 -2 10 4 10 5 0 13 -4 16 -10z m-2808 -40 c-27 -21 -37 -25 -37 -12 0
4 10 12 23 18 36 18 42 16 14 -6z m1608 -30 c3 -5 1 -10 -4 -10 -6 0 -11 5
-11 10 0 6 2 10 4 10 3 0 8 -4 11 -10z m910 -40 c-3 -5 -13 -10 -21 -10 -8 0
-14 5 -14 10 0 6 9 10 21 10 11 0 17 -4 14 -10z m-709 -42 c4 -6 -2 -7 -16 -3
-15 5 -25 2 -31 -6 -6 -10 -8 -8 -7 7 2 16 7 19 25 16 13 -2 26 -9 29 -14z
m-322 -13 c-5 -21 -3 -25 15 -25 14 0 21 6 21 20 0 24 27 37 43 21 8 -8 7 -11
-4 -11 -8 0 -20 -13 -27 -30 -8 -18 -21 -30 -32 -30 -10 0 -22 -5 -25 -10 -12
-20 -21 -1 -19 42 2 52 1 48 19 48 11 0 14 -7 9 -25z m-44 -10 c0 -14 -2 -25
-4 -25 -2 0 -6 11 -8 25 -3 14 -1 25 3 25 5 0 9 -11 9 -25z m163 -7 c2 -13 8
-31 12 -40 4 -11 3 -18 -4 -18 -6 0 -11 9 -11 19 0 11 -4 23 -10 26 -12 8 -13
35 -1 35 5 0 11 -10 14 -22z m-373 -62 c-13 -13 -40 1 -39 21 0 16 1 16 8 -1
7 -19 8 -18 15 5 7 23 8 23 15 4 5 -11 5 -24 1 -29z m348 21 c2 -12 -3 -17
-17 -17 -12 0 -21 6 -21 13 0 31 32 34 38 4z m-444 -2 c3 -8 1 -15 -4 -15 -6
0 -10 7 -10 15 0 8 2 15 4 15 2 0 6 -7 10 -15z m143 -7 c-3 -8 -6 -5 -6 6 -1
11 2 17 5 13 3 -3 4 -12 1 -19z m423 2 c0 -5 -4 -10 -10 -10 -5 0 -10 5 -10
10 0 6 5 10 10 10 6 0 10 -4 10 -10z m-595 -20 c18 -8 17 -9 -7 -9 -16 -1 -28
4 -28 9 0 12 8 12 35 0z m2355 -41 c0 -6 -4 -7 -10 -4 -5 3 -10 11 -10 16 0 6
5 7 10 4 6 -3 10 -11 10 -16z m-2503 5 c-3 -3 -12 -4 -19 -1 -8 3 -5 6 6 6 11
1 17 -2 13 -5z m1231 -17 c2 -10 -3 -17 -12 -17 -10 0 -16 9 -16 21 0 24 23
21 28 -4z m-88 -6 c0 -5 -7 -11 -14 -14 -10 -4 -13 -1 -9 9 6 15 23 19 23 5z
m960 -20 c0 -18 -18 -21 -30 -6 -10 13 -9 15 9 15 11 0 21 -4 21 -9z m-903 -7
c-3 -3 -12 -4 -19 -1 -8 3 -5 6 6 6 11 1 17 -2 13 -5z m296 -35 c-16 -16 -32
-3 -26 22 5 19 7 19 21 5 12 -12 13 -19 5 -27z m-200 -8 c3 -14 -1 -20 -18
-23 -16 -4 -22 -1 -19 9 2 7 6 20 9 29 6 19 21 11 28 -15z m-93 9 c0 -5 -7 -7
-15 -4 -8 4 -15 8 -15 10 0 2 7 4 15 4 8 0 15 -4 15 -10z m370 -75 c7 -8 8
-15 2 -15 -5 0 -15 7 -22 15 -7 8 -8 15 -2 15 5 0 15 -7 22 -15z m-10 -31 c0
-2 -9 -4 -20 -4 -11 0 -20 4 -20 9 0 5 9 7 20 4 11 -3 20 -7 20 -9z m360 -36
c0 -16 -3 -19 -11 -11 -6 6 -8 16 -5 22 11 17 16 13 16 -11z m-21 -62 c7 -8
11 -30 9 -48 -3 -30 -7 -33 -38 -37 -29 -3 -32 -5 -15 -11 19 -8 19 -9 -2 -9
-30 -1 -36 13 -29 64 7 42 15 50 52 54 6 0 17 -5 23 -13z m36 -25 c3 -5 1 -12
-5 -16 -5 -3 -10 1 -10 9 0 18 6 21 15 7z m-162 -51 c-3 -12 -8 -19 -11 -16
-5 6 5 36 12 36 2 0 2 -9 -1 -20z m-99 -5 c-6 -16 -24 -21 -24 -7 0 11 11 22
21 22 5 0 6 -7 3 -15z m222 -221 c-4 -12 -2 -15 9 -10 11 4 15 -2 15 -21 l0
-26 -24 22 c-20 18 -22 26 -13 37 16 18 20 17 13 -2z m-3535 -265 c13 -7 18
-17 14 -28 -4 -15 11 -26 85 -61 57 -28 90 -49 90 -59 0 -29 -12 -60 -25 -64
-6 -3 -50 14 -97 38 -84 44 -99 45 -111 12 -5 -13 0 -20 21 -29 15 -6 36 -14
47 -19 31 -12 99 -33 110 -34 14 0 17 -28 6 -58 -8 -20 -18 -27 -36 -27 -15 0
-24 -4 -21 -9 17 -26 -47 -111 -95 -126 -19 -7 -59 10 -59 24 0 5 -13 4 -30
-2 -37 -14 -39 -35 -2 -43 55 -12 165 -43 169 -48 11 -11 -8 -76 -22 -76 -8 0
-51 9 -95 21 -89 24 -110 21 -110 -15 0 -22 5 -25 50 -30 28 -3 73 -9 101 -12
l51 -6 -5 -40 c-3 -22 -8 -42 -10 -45 -3 -2 -31 0 -63 6 -83 16 -131 14 -138
-4 -6 -16 28 -35 62 -35 9 0 34 -5 55 -11 44 -12 47 -32 13 -70 -46 -52 -96
-62 -96 -19 0 30 -38 26 -50 -5 -9 -25 -43 -35 -55 -16 -15 25 43 435 64 451
3 3 6 32 6 65 0 53 3 61 24 71 33 17 49 8 57 -33 7 -35 7 -35 23 -15 9 11 29
24 45 28 l28 7 -7 -41 c-4 -27 -3 -42 6 -48 9 -5 11 -1 7 14 -4 12 -2 22 3 22
13 0 11 44 -3 62 -18 22 -73 39 -86 26 -8 -8 -38 0 -59 17 -2 1 8 35 22 76 32
97 32 98 -9 89 -18 -4 -39 -10 -45 -14 -20 -13 -12 -46 14 -58 45 -20 31 -39
-27 -36 -44 3 -55 7 -67 29 -34 60 24 117 129 126 54 5 61 9 72 34 14 32 20
34 49 18z m-146 -149 c3 -5 1 -10 -4 -10 -6 0 -11 5 -11 10 0 6 2 10 4 10 3 0
8 -4 11 -10z m-111 -317 c3 -10 8 -23 11 -29 3 -6 -7 -16 -22 -23 -25 -11 -29
-10 -46 10 -16 20 -16 23 -1 40 21 24 50 24 58 2z m5036 -143 c0 -5 -5 -10
-11 -10 -5 0 -7 5 -4 10 3 6 8 10 11 10 2 0 4 -4 4 -10z m-733 -142 c-3 -8 -6
-5 -6 6 -1 11 2 17 5 13 3 -3 4 -12 1 -19z m723 -15 c0 -5 -4 -14 -9 -22 -7
-12 -12 -11 -30 1 -11 8 -18 18 -14 21 9 9 53 9 53 0z m-332 -41 c3 -21 5 -21
25 -7 78 54 141 -44 107 -166 -16 -57 -86 -160 -105 -153 -13 5 -15 -8 -15
-89 0 -97 -5 -111 -40 -112 -20 0 -41 15 -34 26 3 5 -39 9 -95 9 -74 0 -101
-3 -102 -12 -1 -28 -18 30 -18 65 -1 31 3 39 25 47 14 6 37 11 52 11 17 1 21
3 10 6 -10 2 -18 9 -18 14 0 5 -7 9 -16 9 -9 0 -14 6 -11 13 2 6 -3 17 -11 23
-32 23 35 117 109 155 23 11 38 23 35 26 -3 3 -12 0 -20 -6 -9 -7 -36 -13 -61
-13 -25 -1 -45 -6 -45 -12 0 -6 -4 -5 -9 3 -6 10 -13 11 -29 2 -26 -14 -35
-14 -27 -1 3 6 3 16 -2 23 -11 18 -12 36 -2 43 14 8 0 24 -16 17 -8 -3 -15 0
-15 6 0 6 11 11 24 11 13 0 26 4 28 10 2 5 26 12 53 14 88 8 160 19 148 23 -7
3 -13 9 -13 14 0 6 5 7 10 4 6 -3 10 -2 10 4 0 9 35 20 55 16 6 -1 11 -11 13
-23z m192 -2 c0 -5 -2 -10 -4 -10 -3 0 -8 5 -11 10 -3 6 -1 10 4 10 6 0 11 -4
11 -10z m-4823 -226 c5 -14 21 -16 107 -13 l101 4 6 -30 c9 -52 4 -55 -90 -56
-101 -1 -116 -6 -116 -39 0 -23 3 -24 45 -20 25 2 72 4 105 5 l60 0 0 -35 c0
-33 -2 -35 -40 -40 -31 -4 -41 -10 -43 -26 -2 -17 4 -23 28 -27 27 -6 30 -9
24 -34 -3 -16 -18 -45 -32 -66 -21 -32 -23 -41 -14 -62 15 -32 37 -32 66 0 16
17 26 21 33 14 17 -17 -25 -79 -65 -96 -32 -13 -37 -13 -61 5 -29 22 -54 113
-32 120 22 7 10 22 -19 22 -17 0 -30 -5 -30 -12 0 -26 33 -183 40 -191 4 -4
50 4 104 19 53 15 99 24 102 22 3 -3 7 -21 10 -40 6 -34 6 -35 -42 -47 -115
-30 -144 -44 -144 -68 0 -22 3 -23 33 -18 33 6 33 6 50 -49 10 -31 22 -56 28
-56 12 0 12 2 -6 38 -14 27 -14 35 -2 64 18 43 38 59 65 51 25 -6 26 -11 12
-48 -7 -19 -16 -25 -32 -23 -15 2 -23 -2 -23 -12 0 -9 11 -16 30 -18 38 -5 55
19 55 76 0 30 4 42 12 40 32 -11 26 -131 -7 -168 -10 -11 -29 -20 -43 -20 -14
0 -35 -9 -47 -20 -28 -26 -47 -18 -69 27 -9 19 -19 33 -22 31 -5 -5 35 -118
47 -131 3 -5 46 12 95 37 48 25 89 44 90 43 2 -1 10 -16 18 -32 17 -33 9 -50
-29 -59 -15 -4 -25 -14 -25 -24 0 -28 15 -43 34 -36 35 13 41 -28 14 -98 -10
-27 -48 -41 -48 -18 0 12 -30 13 -49 1 -12 -8 -13 -14 -3 -35 10 -22 9 -27 -7
-36 -23 -12 -28 -7 -74 85 -64 128 -137 320 -161 425 -8 36 -24 103 -35 150
-32 140 -61 353 -61 449 0 91 0 91 25 91 14 0 28 -7 32 -16z m4428 -324 c9
-10 15 -26 12 -34 -9 -22 -55 -49 -72 -43 -24 10 -30 55 -10 77 23 25 47 25
70 0z m78 -142 c9 -11 17 -15 17 -9 0 6 4 11 8 11 10 0 -16 -111 -29 -124 -14
-15 -11 -32 3 -18 7 7 21 45 33 84 19 70 22 73 49 71 16 -1 30 -4 32 -6 9 -9
-57 -295 -86 -372 -11 -27 -24 -70 -30 -93 -14 -53 -116 -287 -142 -324 -10
-14 -18 -29 -18 -32 0 -11 -71 -116 -78 -116 -14 0 -32 23 -32 41 0 9 -16 29
-36 44 -26 20 -34 33 -31 47 5 19 2 20 -49 13 l-54 -6 0 30 c0 20 6 31 18 35
19 6 168 36 177 36 3 0 10 -12 15 -26 8 -19 7 -31 -1 -41 -8 -9 -9 -17 -2 -24
7 -7 15 -2 25 13 32 50 30 57 -20 79 -88 39 -137 64 -140 71 -2 3 -32 -7 -67
-23 -64 -29 -115 -38 -115 -19 0 5 20 18 44 28 45 20 63 38 51 50 -4 4 -10 1
-12 -6 -7 -18 -23 -4 -23 20 0 32 46 86 79 93 37 8 69 -8 77 -39 4 -16 21 -30
56 -45 28 -12 52 -21 53 -19 1 2 6 13 9 25 8 26 -7 38 -49 39 -23 0 -31 5 -33
22 -3 18 4 26 32 37 19 8 49 15 66 15 16 0 30 5 30 10 0 6 -16 10 -35 8 -24
-1 -42 4 -55 18 -17 17 -18 24 -9 57 5 20 21 44 34 53 20 13 22 19 13 34 -8
12 -9 28 -2 51 11 37 27 41 89 25 24 -6 28 -5 18 5 -19 19 -16 35 12 65 13 14
22 30 20 34 -3 5 1 11 7 13 7 3 0 6 -15 6 -16 1 -26 -3 -22 -9 3 -5 0 -7 -8
-4 -8 3 -17 -2 -20 -10 -11 -29 -37 -19 -37 14 0 21 8 35 25 46 14 9 23 19 20
23 -10 9 68 30 95 25 14 -3 33 -14 43 -26z"/>
<path d="M1946 4961 c-3 -5 0 -11 8 -14 22 -9 29 -56 11 -83 -19 -30 -6 -32
18 -3 22 25 24 44 9 82 -11 26 -35 36 -46 18z"/>
<path d="M1365 4464 c16 -25 16 -27 -4 -41 -12 -8 -21 -20 -20 -26 0 -9 2 -9
5 0 4 8 13 9 35 1 29 -10 38 -31 19 -43 -5 -3 -10 -16 -10 -28 1 -21 1 -21 14
-4 8 10 17 34 20 53 6 29 2 40 -26 74 -37 44 -59 54 -33 14z"/>
<path d="M775 3530 c-3 -5 1 -10 10 -10 9 0 13 5 10 10 -3 6 -8 10 -10 10 -2
0 -7 -4 -10 -10z"/>
<path d="M5374 2900 c0 -71 2 -87 12 -79 20 17 37 78 30 110 -3 18 -2 28 4 24
6 -4 7 1 3 11 -4 11 -8 13 -11 6 -5 -15 -23 -16 -19 -1 1 6 -3 13 -8 15 -7 3
-11 -28 -11 -86z"/>
<path d="M5270 2922 c0 -20 -7 -31 -22 -38 -13 -6 -16 -8 -8 -6 10 2 12 0 5
-6 -5 -6 -19 -12 -30 -14 -12 -2 -20 -11 -20 -23 0 -16 6 -20 28 -18 15 1 35
9 44 18 13 13 18 14 25 3 6 -8 7 3 4 32 -3 25 -5 53 -5 63 -1 29 -21 19 -21
-11z"/>
<path d="M758 2622 c-10 -2 -18 -12 -18 -23 0 -14 7 -19 30 -19 23 0 30 5 30
19 0 21 -16 29 -42 23z"/>
<path d="M963 1864 c-24 -17 -21 -44 6 -44 29 0 44 16 36 39 -7 25 -12 25 -42
5z"/>
<path d="M5227 2233 c-11 -10 -8 -43 3 -43 6 0 10 11 10 25 0 26 -2 29 -13 18z"/>
<path d="M5034 2116 c3 -22 5 -23 82 -51 64 -23 70 -24 81 -8 10 13 9 19 -5
29 -20 16 -46 18 -37 4 11 -19 -79 1 -102 22 -17 16 -21 17 -19 4z"/>
<path d="M4980 2000 c8 -5 20 -10 25 -10 6 0 3 5 -5 10 -8 5 -19 10 -25 10 -5
0 -3 -5 5 -10z"/>
<path d="M5080 1966 c0 -2 7 -20 16 -41 14 -35 14 -41 -5 -86 -24 -54 -25 -59
-11 -59 14 0 70 115 70 144 0 18 -8 27 -31 35 -35 12 -39 13 -39 7z"/>
<path d="M4800 1866 c0 -9 7 -16 16 -16 17 0 14 22 -4 28 -7 2 -12 -3 -12 -12z"/>
<path d="M4795 1830 c-3 -5 -2 -10 4 -10 5 0 13 5 16 10 3 6 2 10 -4 10 -5 0
-13 -4 -16 -10z"/>
<path d="M2637 5183 c-3 -5 4 -17 14 -27 19 -19 19 -19 19 7 0 25 -22 38 -33
20z"/>
<path d="M3257 5179 c7 -7 15 -10 18 -7 3 3 -2 9 -12 12 -14 6 -15 5 -6 -5z"/>
<path d="M3390 5145 c32 -18 40 -18 40 0 0 10 -10 15 -32 15 l-33 -1 25 -14z"/>
<path d="M3440 5150 c0 -5 6 -10 14 -10 21 0 34 -23 26 -45 -6 -17 -7 -16 -14
8 -3 15 -13 27 -21 27 -19 0 -19 -14 0 -30 8 -7 15 -22 15 -34 0 -11 5 -28 11
-36 8 -12 9 -10 4 9 -5 15 -3 21 3 17 22 -13 31 71 10 92 -15 15 -48 16 -48 2z"/>
<path d="M2654 5096 c-3 -8 -16 -12 -32 -9 -15 1 -20 0 -12 -3 8 -4 18 -11 21
-16 3 -4 16 3 29 17 13 14 18 25 11 25 -6 0 -14 -6 -17 -14z"/>
<path d="M3238 5103 c-10 -2 -18 -9 -18 -14 0 -14 16 -11 30 6 7 8 11 14 9 14
-2 -1 -12 -3 -21 -6z"/>
<path d="M3597 5094 c-4 -4 -4 -19 -1 -33 4 -20 3 -23 -5 -11 -7 9 -11 10 -11
3 0 -24 19 -23 46 2 15 14 36 25 48 26 19 0 19 1 -3 10 -14 5 -27 6 -30 1 -9
-13 -41 -23 -41 -12 0 5 8 11 18 13 14 4 14 5 1 6 -9 0 -19 -2 -22 -5z"/>
<path d="M2595 5060 c3 -5 10 -10 16 -10 5 0 9 5 9 10 0 6 -7 10 -16 10 -8 0
-12 -4 -9 -10z"/>
<path d="M3208 5063 c7 -3 16 -2 19 1 4 3 -2 6 -13 5 -11 0 -14 -3 -6 -6z"/>
<path d="M3360 5055 c-8 -10 -9 -15 -2 -15 6 0 9 -8 6 -17 -5 -15 -4 -15 4 -3
6 8 8 18 6 22 -3 4 0 8 5 8 6 0 11 5 11 10 0 15 -16 12 -30 -5z"/>
<path d="M3750 5040 c0 -5 4 -10 9 -10 6 0 13 5 16 10 3 6 -1 10 -9 10 -9 0
-16 -4 -16 -10z"/>
<path d="M3683 4990 c-21 -9 -51 -50 -36 -50 4 0 21 14 37 30 32 32 32 33 -1
20z"/>
<path d="M3877 4945 c-3 -27 -9 -61 -12 -75 -5 -24 -5 -24 4 -2 12 26 22 30
16 5 -3 -10 1 -4 9 12 8 17 15 36 16 43 0 6 4 12 10 12 5 0 7 7 4 15 -4 8 -1
15 6 15 6 0 8 5 4 11 -5 8 -10 6 -16 -5 -12 -21 -26 -20 -30 2 -2 9 -7 -5 -11
-33z"/>
<path d="M3554 4942 c-4 -18 -11 -35 -15 -38 -5 -3 -9 -10 -9 -16 0 -7 5 -7
14 1 10 9 15 8 20 -4 3 -8 12 -15 21 -15 8 0 15 -4 15 -9 0 -13 53 -21 65 -10
5 5 1 9 -12 9 -12 0 -25 5 -28 10 -4 6 -11 8 -16 5 -5 -4 -9 2 -9 12 0 14 -2
15 -9 4 -6 -10 -9 -2 -9 24 0 51 -20 69 -28 27z"/>
<path d="M3766 4919 c-11 -10 -15 -19 -10 -19 12 1 44 25 44 34 0 11 -15 5
-34 -15z"/>
<path d="M4045 4920 c-3 -5 -1 -10 4 -10 6 0 11 5 11 10 0 6 -2 10 -4 10 -3 0
-8 -4 -11 -10z"/>
<path d="M4002 4872 c-27 -34 -28 -46 -2 -32 11 6 20 17 20 25 0 7 5 15 12 17
7 3 8 7 2 10 -5 4 -19 -6 -32 -20z"/>
<path d="M3861 4824 c0 -11 3 -14 6 -6 3 7 2 16 -1 19 -3 4 -6 -2 -5 -13z"/>
<path d="M3962 4797 c-7 -16 -17 -37 -22 -47 -6 -12 -7 -21 0 -25 11 -7 42 63
37 85 -3 10 -8 6 -15 -13z"/>
<path d="M4265 4770 c3 -5 8 -10 11 -10 2 0 4 5 4 10 0 6 -5 10 -11 10 -5 0
-7 -4 -4 -10z"/>
<path d="M4720 4754 c0 -8 5 -12 10 -9 6 3 10 10 10 16 0 5 -4 9 -10 9 -5 0
-10 -7 -10 -16z"/>
<path d="M4355 4702 c-6 -4 -29 -34 -51 -67 -39 -57 -64 -135 -43 -135 5 0 10
6 10 13 1 6 3 22 4 35 3 27 11 37 33 37 10 0 16 7 16 17 -1 10 2 16 6 13 6 -4
50 47 50 59 0 3 -7 3 -15 0 -18 -7 -20 7 -3 24 13 13 9 16 -7 4z"/>
<path d="M4180 4696 c0 -2 9 -6 20 -9 11 -3 18 -1 14 4 -5 9 -34 13 -34 5z"/>
<path d="M5123 4644 c0 -13 5 -28 12 -34 10 -8 13 -3 13 23 0 21 -5 34 -13 34
-7 0 -12 -11 -12 -23z"/>
<path d="M4728 4643 c7 -3 16 -2 19 1 4 3 -2 6 -13 5 -11 0 -14 -3 -6 -6z"/>
<path d="M4800 4639 c0 -5 5 -7 10 -4 6 3 10 8 10 11 0 2 -4 4 -10 4 -5 0 -10
-5 -10 -11z"/>
<path d="M5150 4574 c0 -17 22 -14 28 4 2 7 -3 12 -12 12 -9 0 -16 -7 -16 -16z"/>
<path d="M3935 4560 c-11 -5 -17 -9 -13 -9 3 -1 14 -4 24 -8 12 -4 15 -3 10 5
-4 7 -2 12 3 12 6 0 11 -8 11 -19 0 -12 13 -25 36 -36 45 -21 56 -13 15 11
-17 10 -31 24 -31 30 0 9 -25 27 -33 23 -1 0 -11 -4 -22 -9z"/>
<path d="M5201 4534 c-1 -5 5 -18 12 -28 12 -17 14 -17 20 -2 4 10 1 16 -7 16
-8 0 -17 6 -19 13 -3 6 -6 7 -6 1z"/>
<path d="M4155 4510 c-3 -5 1 -10 9 -10 9 0 16 5 16 10 0 6 -4 10 -9 10 -6 0
-13 -4 -16 -10z"/>
<path d="M5256 4463 c-3 -4 -6 -15 -6 -25 0 -10 -7 -18 -15 -18 -9 0 -14 -8
-12 -21 1 -12 -4 -24 -10 -26 -7 -3 -13 4 -14 14 0 10 -3 13 -6 6 -8 -22 -27
-14 -53 22 -14 19 -29 30 -34 25 -5 -5 -2 -16 8 -25 9 -9 16 -22 16 -30 0 -7
7 -15 15 -19 8 -3 15 -13 15 -23 0 -10 9 -24 20 -31 11 -7 20 -19 20 -27 0 -8
5 -15 10 -15 6 0 10 -6 10 -12 0 -7 11 -33 25 -58 13 -25 29 -55 34 -67 18
-40 34 -27 29 22 -4 31 -13 51 -29 65 l-24 19 28 1 c21 0 30 -6 34 -20 8 -30
26 -19 41 26 11 35 12 36 7 7 -5 -39 12 -45 21 -8 4 15 1 32 -7 42 -11 13 -11
17 -1 20 23 8 12 33 -27 61 -22 15 -46 38 -53 52 -17 33 -34 50 -42 43z m39
-63 c3 -5 1 -10 -4 -10 -6 0 -11 5 -11 10 0 6 2 10 4 10 3 0 8 -4 11 -10z
m-48 -72 c-3 -12 -2 -30 4 -40 12 -23 -3 -24 -25 -2 -20 19 -20 19 1 44 22 26
27 25 20 -2z"/>
<path d="M4300 4450 c0 -5 5 -10 10 -10 6 0 10 5 10 10 0 6 -4 10 -10 10 -5 0
-10 -4 -10 -10z"/>
<path d="M5320 4420 c6 -11 13 -20 16 -20 2 0 0 9 -6 20 -6 11 -13 20 -16 20
-2 0 0 -9 6 -20z"/>
<path d="M4590 4380 c0 -22 5 -30 18 -30 13 0 14 2 3 9 -8 5 -12 18 -8 30 3
12 1 21 -4 21 -5 0 -9 -13 -9 -30z"/>
<path d="M2385 4070 c-3 -5 -1 -10 4 -10 6 0 11 5 11 10 0 6 -2 10 -4 10 -3 0
-8 -4 -11 -10z"/>
<path d="M5470 4040 c0 -13 5 -20 13 -17 6 2 12 10 12 17 0 7 -6 15 -12 18 -8
2 -13 -5 -13 -18z"/>
<path d="M4580 4039 c0 -5 5 -7 10 -4 6 3 10 8 10 11 0 2 -4 4 -10 4 -5 0 -10
-5 -10 -11z"/>
<path d="M5346 4025 c4 -8 8 -15 10 -15 2 0 4 7 4 15 0 8 -4 15 -10 15 -5 0
-7 -7 -4 -15z"/>
<path d="M5361 3984 c0 -11 3 -14 6 -6 3 7 2 16 -1 19 -3 4 -6 -2 -5 -13z"/>
<path d="M5556 3968 c4 -25 2 -38 -5 -38 -6 0 -11 11 -11 24 0 14 -4 27 -9 31
-5 3 -9 -10 -8 -30 1 -19 7 -35 12 -35 6 0 4 -4 -4 -9 -8 -5 -11 -16 -7 -26 3
-10 9 -15 13 -12 3 4 14 2 24 -4 15 -8 21 -6 26 7 4 10 2 19 -5 22 -7 2 -10
13 -6 26 3 12 -2 35 -11 51 l-16 30 7 -37z"/>
<path d="M2401 3974 c0 -11 3 -14 6 -6 3 7 2 16 -1 19 -3 4 -6 -2 -5 -13z"/>
<path d="M5400 3906 c0 -8 5 -18 10 -21 6 -3 10 3 10 14 0 12 -4 21 -10 21 -5
0 -10 -6 -10 -14z"/>
<path d="M5420 3846 c0 -14 5 -28 10 -31 6 -4 10 7 10 24 0 17 -4 31 -10 31
-5 0 -10 -11 -10 -24z"/>
<path d="M5440 3781 c0 -11 4 -22 9 -26 5 -3 13 -20 17 -38 7 -31 8 -32 15 -7
11 40 10 50 -6 50 -8 0 -15 6 -15 14 0 8 -4 18 -10 21 -5 3 -10 -3 -10 -14z"/>
<path d="M5611 3774 c0 -11 3 -14 6 -6 3 7 2 16 -1 19 -3 4 -6 -2 -5 -13z"/>
<path d="M2222 3558 c-19 -19 4 -44 70 -76 35 -16 76 -41 91 -56 15 -14 36
-26 46 -26 9 0 21 -4 26 -8 6 -5 30 -14 55 -21 25 -8 79 -30 120 -51 41 -20
86 -41 100 -45 27 -8 111 -45 175 -77 22 -11 58 -21 80 -22 22 -1 64 -12 93
-24 28 -12 52 -17 52 -12 0 6 -5 10 -10 10 -6 0 -27 7 -48 16 -20 9 -91 36
-157 59 -160 57 -155 55 -155 74 0 12 -29 31 -97 61 -54 24 -100 47 -103 50
-3 3 -24 14 -47 25 -24 11 -43 24 -43 28 0 5 -4 6 -9 2 -5 -3 -17 2 -25 11 -9
8 -16 12 -16 8 0 -3 -6 -1 -14 6 -8 6 -12 18 -9 27 5 13 3 13 -14 3 -16 -10
-27 -9 -65 9 -26 11 -56 21 -68 21 -12 0 -18 5 -15 10 8 13 2 13 -13 -2z"/>
<path d="M2009 3485 c-36 -24 -49 -43 -49 -71 0 -12 5 -11 28 3 15 10 29 20
32 24 3 3 16 12 28 18 30 16 82 -3 82 -28 0 -10 7 -26 15 -37 12 -15 16 -16
24 -5 6 10 13 11 30 2 19 -10 21 -9 21 12 0 14 -9 36 -21 51 -47 60 -129 73
-190 31z"/>
<path d="M5690 3456 c0 -8 -4 -16 -9 -18 -5 -1 -3 -9 5 -16 12 -11 14 -8 14
18 0 16 -2 30 -5 30 -3 0 -5 -6 -5 -14z"/>
<path d="M3415 3434 c-125 -16 -196 -28 -235 -41 -104 -35 -107 -88 -3 -59 53
15 83 17 98 6 22 -17 120 -15 159 4 48 23 108 17 142 -15 28 -26 53 -104 46
-148 -3 -22 0 -31 9 -31 12 0 12 -2 0 -9 -29 -19 -5 -36 43 -33 51 4 54 10 10
18 -32 6 -44 15 -29 21 36 13 40 22 18 38 -25 17 -31 37 -10 32 7 -1 11 7 10
20 -1 11 4 27 12 33 17 14 20 50 4 50 -6 0 -29 15 -52 33 -79 61 -155 89 -222
81z"/>
<path d="M5636 3413 c-11 -11 -6 -23 9 -23 8 0 15 4 15 9 0 13 -16 22 -24 14z"/>
<path d="M5712 3395 c-14 -31 -15 -35 -3 -35 8 0 23 51 17 58 -2 1 -8 -9 -14
-23z"/>
<path d="M5681 3393 c0 -6 -4 -20 -7 -30 -5 -14 -4 -15 5 -7 7 7 11 20 8 30
-3 11 -5 14 -6 7z"/>
<path d="M5732 3360 c0 -14 2 -19 5 -12 2 6 2 18 0 25 -3 6 -5 1 -5 -13z"/>
<path d="M3950 3350 c-8 -4 -34 -13 -58 -19 -33 -9 -45 -19 -56 -44 -7 -18
-19 -40 -27 -48 -28 -30 -47 -77 -42 -103 7 -36 22 -28 42 22 32 82 124 152
201 152 52 0 49 17 -5 36 -22 7 -40 14 -40 13 0 0 -7 -4 -15 -9z"/>
<path d="M4847 3347 c-11 -28 -8 -49 4 -41 8 4 9 -4 5 -27 -3 -20 -3 -27 2
-16 4 10 12 17 17 15 6 -2 11 16 13 40 2 25 -1 42 -7 42 -6 0 -11 -10 -12 -22
-1 -22 -1 -22 -8 2 -6 22 -8 23 -14 7z"/>
<path d="M3439 3318 c-8 -7 -13 -12 -11 -12 11 5 86 -19 98 -31 22 -21 16 -29
-9 -12 -13 8 -47 17 -77 20 -50 5 -55 4 -82 -25 -37 -40 -51 -89 -30 -105 13
-11 12 -15 -11 -34 -15 -11 -27 -28 -27 -36 0 -13 9 -15 53 -10 117 14 182 27
185 37 2 5 8 8 13 5 5 -4 20 2 34 12 21 16 24 26 25 80 0 52 -4 66 -26 92 -22
27 -33 31 -73 31 -26 0 -54 -6 -62 -12z m11 -128 c0 -5 -4 -10 -10 -10 -5 0
-10 5 -10 10 0 6 5 10 10 10 6 0 10 -4 10 -10z m-60 -20 c0 -13 -30 -13 -50 0
-11 7 -7 10 18 10 17 0 32 -4 32 -10z m3 -27 c-7 -2 -19 -2 -25 0 -7 3 -2 5
12 5 14 0 19 -2 13 -5z"/>
<path d="M4972 3305 c0 -16 2 -22 5 -12 2 9 2 23 0 30 -3 6 -5 -1 -5 -18z"/>
<path d="M5090 3321 c0 -5 5 -13 10 -16 6 -3 10 -2 10 4 0 5 -4 13 -10 16 -5
3 -10 2 -10 -4z"/>
<path d="M2231 3313 c-2 -23 -43 -52 -83 -58 -28 -5 -42 -14 -50 -30 -18 -39
-4 -55 46 -55 25 0 48 -5 51 -10 4 -6 15 -8 25 -5 15 5 24 -6 47 -54 28 -61
46 -75 57 -45 8 21 9 18 -15 45 -18 21 -20 32 -15 79 13 109 14 105 -21 108
-20 2 -33 10 -36 20 -3 9 -5 12 -6 5z"/>
<path d="M3016 3280 c6 -6 33 -13 59 -15 70 -6 83 -25 17 -25 -38 0 -52 -4
-52 -14 0 -25 48 -32 140 -20 40 5 46 3 55 -18 6 -13 20 -24 31 -26 17 -2 23
4 27 26 3 16 18 44 33 61 14 18 24 35 20 38 -3 3 -44 2 -90 -3 -46 -5 -94 -6
-107 -3 -41 12 -144 10 -133 -1z m264 -55 c0 -8 -6 -15 -14 -15 -17 0 -28 14
-19 24 12 12 33 6 33 -9z"/>
<path d="M3956 3272 c-3 -5 8 -6 25 -4 16 2 29 6 29 8 0 8 -49 4 -54 -4z"/>
<path d="M3877 3211 c-19 -20 -37 -47 -40 -61 -7 -29 6 -59 17 -41 4 6 25 11
47 11 33 0 41 4 49 25 10 27 30 34 30 10 0 -18 36 -20 46 -3 8 13 -64 83 -95
91 -13 3 -30 -7 -54 -32z"/>
<path d="M3148 3144 c-11 -18 19 -44 68 -59 26 -8 49 -13 50 -12 0 1 4 16 7
34 6 31 6 31 -38 35 -25 2 -45 0 -45 -4 0 -13 -28 -9 -32 4 -3 7 -7 8 -10 2z"/>
<path d="M2433 3091 c-27 -8 -83 -57 -83 -74 0 -19 98 -17 110 3 5 8 10 11 10
5 0 -12 20 16 20 29 0 5 -7 2 -17 -5 -15 -13 -16 -11 -10 13 8 31 1 37 -30 29z"/>
<path d="M3565 3078 c-2 -7 -5 -25 -8 -41 -3 -21 -1 -25 8 -17 15 12 25 70 13
70 -5 0 -10 -6 -13 -12z"/>
<path d="M3810 3067 c0 -7 7 -22 15 -33 12 -16 14 -17 15 -2 0 23 -11 48 -21
48 -5 0 -9 -6 -9 -13z"/>
<path d="M3533 2957 c-51 -66 -158 -84 -209 -36 -32 30 -31 8 3 -31 l27 -32
-25 -19 c-17 -14 -41 -19 -87 -19 -35 0 -73 -5 -85 -12 -34 -18 -85 -19 -102
-2 -8 8 -20 12 -26 8 -8 -4 -7 -9 2 -16 10 -6 5 -8 -16 -6 -25 3 -30 -1 -33
-22 -4 -34 -28 -83 -56 -117 -26 -32 -38 -70 -25 -79 6 -3 9 -40 9 -82 -1 -43
2 -99 5 -127 7 -45 6 -48 -7 -31 -8 10 -19 16 -25 13 -6 -4 -19 0 -29 8 -10 8
-27 15 -36 15 -11 0 -15 5 -12 15 4 8 2 15 -4 15 -5 0 -20 20 -33 45 -13 25
-30 45 -37 45 -27 0 -62 52 -62 91 0 29 -4 39 -15 39 -9 0 -15 6 -13 13 6 33
-44 71 -66 50 -4 -4 -17 -8 -29 -8 -19 0 -22 -5 -21 -37 3 -80 -41 -19 -61 85
-7 39 -12 74 -9 78 6 11 -7 40 -16 34 -4 -3 -11 3 -14 12 -6 14 -9 14 -29 -4
-12 -11 -35 -25 -52 -30 l-30 -10 -6 -114 c-4 -87 -11 -123 -26 -154 -12 -22
-24 -60 -27 -84 -7 -44 -6 -45 13 -27 26 23 34 7 22 -45 -10 -46 -8 -58 25
-109 12 -19 37 -71 54 -115 18 -44 47 -116 65 -160 18 -44 35 -89 37 -99 1
-11 9 -21 16 -24 9 -3 11 3 6 22 -6 26 10 38 19 14 3 -10 7 -10 17 -1 10 10
10 18 0 43 -7 17 -10 33 -7 36 7 8 50 -16 60 -32 12 -21 30 -17 24 6 -8 30 15
25 55 -12 58 -53 69 -57 103 -37 49 30 56 32 68 20 9 -9 6 -13 -11 -17 -12 -4
-22 -10 -22 -15 0 -4 -18 -27 -40 -51 -40 -44 -35 -62 10 -38 26 14 193 32
215 24 8 -3 15 -12 15 -20 0 -8 9 -14 20 -14 11 0 20 -7 20 -15 0 -8 5 -15 11
-15 6 0 8 7 5 16 -4 12 -1 14 14 9 23 -7 69 22 70 45 1 26 132 157 170 168 61
19 117 1 162 -51 47 -55 92 -85 158 -102 l50 -13 0 27 c0 43 -26 86 -75 123
-29 21 -44 40 -42 52 1 10 -5 20 -13 22 -8 1 -61 14 -117 28 -56 14 -108 26
-114 26 -23 0 -99 42 -99 54 0 6 -20 18 -44 25 -48 14 -70 32 -81 69 -5 18
-13 23 -30 20 -18 -4 -28 5 -54 48 -34 57 -38 74 -18 74 7 0 23 9 35 21 12 11
27 17 34 13 7 -5 9 -1 6 12 -3 11 2 26 10 34 13 12 17 11 30 -8 9 -14 25 -22
44 -22 27 0 29 2 24 30 -3 21 0 30 9 30 53 0 181 -26 254 -52 111 -40 189 -42
227 -8 31 30 54 19 67 -30 l8 -33 16 29 c23 44 43 115 30 107 -6 -4 -35 -6
-64 -6 -79 2 -83 2 -83 13 0 15 72 60 97 60 12 0 26 8 31 17 13 22 -17 38 -90
48 -29 4 -60 13 -68 20 -8 7 -35 22 -60 34 -60 28 -87 50 -100 85 -13 35 4 67
47 85 16 7 35 28 45 48 21 45 17 53 -9 20z m-143 -182 c0 -8 -4 -15 -10 -15
-5 0 -10 -10 -10 -22 1 -21 2 -22 14 -5 18 24 26 21 26 -9 0 -21 4 -25 20 -21
25 6 27 -20 3 -38 -26 -20 -7 -36 24 -20 15 8 31 11 36 8 13 -8 -22 -33 -45
-33 -10 0 -29 -7 -42 -15 -14 -9 -36 -14 -52 -11 -16 3 -57 6 -91 8 -35 1 -63
5 -63 8 0 11 -75 8 -82 -3 -5 -8 -8 -7 -8 5 0 10 10 23 23 29 12 7 28 20 35
31 7 10 20 18 28 18 8 0 14 7 14 15 0 19 57 55 86 55 12 0 35 7 50 15 36 19
44 19 44 0z m-327 -147 c10 -27 -6 -81 -24 -85 -11 -3 -19 -9 -19 -14 0 -5 -4
-9 -10 -9 -18 0 -11 67 11 94 23 29 34 33 42 14z m397 -34 c0 -2 -9 -4 -21 -4
-11 0 -18 4 -14 10 5 8 35 3 35 -6z m-955 -159 c0 -39 24 -65 48 -53 24 12 67
-15 67 -42 0 -11 5 -20 12 -20 6 0 3 -6 -8 -14 -19 -14 -19 -15 0 -49 10 -20
15 -40 11 -47 -4 -6 -1 -17 5 -25 11 -13 7 -15 -19 -15 -27 0 -31 3 -26 19 3
11 1 22 -5 26 -6 3 -8 10 -5 15 3 4 -2 13 -10 20 -8 7 -15 19 -15 26 0 8 -4
14 -9 14 -5 0 -12 11 -15 25 -6 23 -8 24 -22 10 -23 -23 -43 -19 -36 8 5 19 3
20 -10 9 -12 -10 -18 -10 -23 -1 -4 6 -3 14 3 18 12 7 11 75 -1 87 -15 15 -6
22 25 20 29 -1 33 -5 33 -31z m55 -25 c0 -5 -2 -10 -4 -10 -3 0 -8 5 -11 10
-3 6 -1 10 4 10 6 0 11 -4 11 -10z m-130 -90 c13 -8 13 -10 -2 -10 -9 0 -20 5
-23 10 -8 13 5 13 25 0z m90 -33 c0 -7 -5 -18 -11 -24 -8 -8 -7 -17 4 -34 19
-30 25 -62 12 -69 -6 -3 -11 12 -13 33 -3 33 -6 38 -25 35 -16 -2 -21 2 -19
14 1 9 -2 19 -8 23 -5 3 -10 11 -10 17 0 6 8 4 18 -5 24 -22 32 -21 32 3 0 11
5 20 10 20 6 0 10 -6 10 -13z m200 -47 c0 -5 -7 -10 -15 -10 -9 0 -18 -6 -21
-14 -3 -8 -12 -12 -20 -9 -22 8 -17 20 14 31 36 14 42 14 42 2z m120 -130 c0
-5 -4 -10 -10 -10 -5 0 -10 5 -10 10 0 6 5 10 10 10 6 0 10 -4 10 -10z m-300
-10 c0 -5 -5 -10 -11 -10 -5 0 -7 5 -4 10 3 6 8 10 11 10 2 0 4 -4 4 -10z
m460 -65 c0 -8 -8 -15 -18 -15 -11 0 -27 -9 -37 -20 -21 -23 -65 -27 -65 -6 0
17 17 30 55 44 43 15 65 14 65 -3z"/>
<path d="M3965 2870 c-16 -7 -17 -9 -3 -9 9 -1 20 4 23 9 7 11 7 11 -20 0z"/>
<path d="M3888 2853 c7 -3 16 -2 19 1 4 3 -2 6 -13 5 -11 0 -14 -3 -6 -6z"/>
<path d="M3837 2604 c-15 -26 -26 -48 -24 -51 11 -10 60 45 62 70 5 39 -6 33
-38 -19z"/>
<path d="M2706 2601 c-4 -7 -5 -15 -2 -18 9 -9 19 4 14 18 -4 11 -6 11 -12 0z"/>
<path d="M3356 2446 c8 -21 89 -58 116 -53 22 3 22 4 3 12 -35 14 -110 47
-117 52 -4 2 -5 -3 -2 -11z"/>
<path d="M3568 2383 c12 -2 30 -2 40 0 9 3 -1 5 -23 4 -22 0 -30 -2 -17 -4z"/>
<path d="M3286 2353 c-4 -9 -2 -21 4 -27 5 -5 10 -18 10 -28 0 -29 41 -38 123
-29 40 5 97 6 126 3 52 -5 53 -4 39 17 -7 12 -24 24 -38 27 -14 3 -70 16 -125
30 -118 29 -131 29 -139 7z"/>
<path d="M2700 1890 c0 -5 5 -10 10 -10 6 0 10 5 10 10 0 6 -4 10 -10 10 -5 0
-10 -4 -10 -10z"/>
<path d="M2280 1620 c0 -5 7 -10 15 -10 8 0 15 5 15 10 0 6 -7 10 -15 10 -8 0
-15 -4 -15 -10z"/>
<path d="M800 1336 c-95 -26 -94 -24 -86 -142 5 -81 4 -105 -6 -109 -7 -2 -76
-8 -153 -14 -137 -10 -222 -27 -258 -53 -15 -11 -16 -16 -5 -30 12 -17 17 -16
78 3 51 17 93 21 195 23 l130 1 3 -26 3 -27 -128 -5 c-94 -3 -141 -10 -175
-24 l-47 -19 38 -54 c50 -72 121 -209 121 -235 0 -11 -25 -63 -55 -114 -76
-128 -116 -209 -107 -215 5 -3 33 1 63 9 36 10 106 15 206 15 133 0 167 -4
281 -30 130 -30 239 -41 277 -27 15 5 23 1 30 -16 9 -20 7 -23 -35 -32 -54
-12 -160 -4 -305 25 -159 31 -348 31 -470 -1 -78 -21 -92 -28 -103 -52 -23
-49 -10 -58 45 -32 138 65 329 70 572 13 92 -21 160 -31 211 -31 72 1 75 2
107 37 45 49 43 73 -4 67 -7 -1 -13 8 -13 19 0 12 4 19 8 16 4 -2 14 -1 22 4
12 7 14 29 12 99 -2 64 1 92 10 97 16 10 44 8 243 -18 88 -11 232 -24 320 -28
158 -7 162 -8 305 -58 271 -94 458 -133 749 -153 299 -21 577 8 889 92 61 16
131 37 155 47 30 11 75 16 157 17 63 0 204 11 312 23 109 13 235 22 280 20
l83 -3 -1 -112 c0 -62 3 -110 8 -107 4 3 8 14 8 25 0 15 5 19 18 15 95 -29
248 -35 328 -12 140 40 391 45 518 11 32 -9 60 -14 63 -12 5 6 -10 38 -95 199
-34 65 -62 128 -62 142 0 30 54 136 109 213 34 48 38 59 25 66 -23 13 -189 44
-276 52 -78 7 -78 7 -78 36 l0 29 88 0 c108 0 205 -14 280 -39 56 -20 57 -20
76 -1 20 19 19 20 -15 34 -53 22 -155 44 -285 61 -63 8 -117 15 -119 15 -2 0
-6 46 -7 102 l-3 103 -38 13 c-121 39 -303 40 -547 2 -250 -39 -374 -50 -578
-50 -226 0 -298 8 -590 70 -290 60 -413 80 -500 80 -78 0 -124 -5 -557 -55
-300 -35 -460 -45 -710 -45 -251 0 -361 10 -492 45 -198 52 -419 70 -523 41z
m1535 -245 c33 -42 55 -61 74 -63 33 -4 42 -37 12 -45 -19 -5 -21 -14 -23
-106 -3 -88 -5 -102 -20 -105 -16 -3 -18 5 -18 55 0 105 -11 161 -29 158 -9
-2 -19 -4 -23 -4 -5 -1 -8 -46 -8 -100 0 -76 -3 -100 -14 -104 -21 -8 -26 2
-26 55 0 41 -3 48 -20 48 -20 0 -44 32 -33 44 3 3 17 6 30 6 21 0 24 4 21 28
-2 21 -9 28 -29 30 -25 3 -27 0 -34 -45 -4 -26 -14 -52 -22 -58 -13 -10 -12
-16 11 -50 20 -29 23 -41 15 -52 -8 -9 -15 -10 -25 -3 -22 19 -94 136 -94 153
0 21 23 22 40 2 20 -24 30 -17 30 21 l0 35 -52 -3 -53 -3 -1 -50 c-1 -27 -2
-74 -3 -102 -1 -46 -4 -53 -21 -53 -17 0 -20 7 -20 50 l0 50 -34 0 c-26 0 -35
-5 -39 -22 -6 -22 -6 -22 -37 7 -33 32 -38 50 -14 59 10 4 14 15 12 33 -2 22
-9 29 -30 31 l-27 3 -3 -103 c-3 -87 -6 -103 -20 -106 -14 -3 -18 7 -20 65
l-3 68 -52 3 c-43 2 -53 0 -53 -13 0 -24 28 -73 47 -84 15 -8 16 -12 5 -23 -9
-9 -17 -10 -30 -2 -28 18 -62 75 -62 105 0 43 24 59 86 59 41 0 54 4 54 15 0
12 -14 15 -65 16 -91 2 -90 2 -90 24 0 19 8 19 360 16 l360 -2 -49 49 c-45 47
-53 72 -22 72 7 0 34 -27 61 -59z m1074 -21 c37 -43 59 -60 77 -60 19 0 24 5
24 25 0 43 41 75 96 75 58 0 105 -22 145 -67 29 -34 33 -35 102 -37 l72 -1 3
35 c2 19 11 43 19 53 20 21 69 23 77 1 8 -21 -1 -34 -24 -34 -25 0 -33 -15
-20 -40 10 -18 21 -20 138 -20 70 0 178 -3 240 -7 109 -6 112 -7 112 -30 0
-16 -6 -23 -20 -23 -19 0 -20 -7 -20 -105 0 -98 -1 -105 -20 -105 -14 0 -20 7
-20 24 0 22 -3 24 -38 19 -33 -4 -44 -1 -75 27 -27 23 -37 40 -37 61 0 24 4
29 24 29 41 0 42 47 1 51 -54 5 -54 6 -57 -103 -3 -95 -4 -103 -23 -103 -17 0
-20 8 -23 48 -3 43 -5 47 -29 47 -14 0 -31 -8 -38 -17 -12 -16 -14 -16 -39 1
-32 20 -41 40 -30 64 4 9 9 29 11 44 2 21 -1 26 -17 25 -19 -1 -20 -9 -20
-104 l0 -103 -25 0 -25 0 0 104 c0 87 -3 105 -16 110 -24 9 -27 3 -29 -66 -1
-35 -3 -66 -3 -70 -4 -16 -30 -7 -56 17 -29 27 -33 50 -12 62 14 8 20 25 17
51 0 7 -15 12 -33 12 l-31 0 6 -104 c6 -89 4 -105 -9 -110 -31 -12 -34 -5 -34
63 0 76 -4 81 -66 81 -22 0 -37 -6 -40 -15 -7 -16 20 -65 43 -78 15 -9 17 -33
3 -42 -30 -18 -90 60 -90 118 0 46 28 67 92 67 27 0 48 5 48 10 0 6 -37 10
-90 10 l-90 0 0 -105 c0 -98 -1 -105 -20 -105 -19 0 -20 7 -20 109 0 106 0
108 -22 107 -22 -1 -23 -6 -28 -106 -4 -89 -8 -105 -22 -108 -15 -3 -18 9 -20
105 l-3 108 -27 3 -28 3 0 -104 c0 -81 -3 -106 -14 -110 -18 -7 -26 1 -26 29
0 20 -4 22 -40 17 -45 -6 -71 10 -96 59 -15 29 -41 40 -30 13 9 -25 -12 -65
-40 -75 -52 -20 -141 54 -132 112 5 36 24 31 43 -12 19 -41 40 -60 69 -60 21
0 21 34 0 65 -9 14 -15 25 -13 26 31 8 93 4 105 -8 18 -18 44 -10 44 14 -1 20
-30 64 -30 45 0 -9 -30 -12 -104 -12 -119 0 -136 4 -136 32 0 20 4 21 215 14
118 -4 215 -4 215 0 0 5 -19 27 -41 50 -39 40 -44 64 -15 64 7 0 36 -27 65
-60z m-2068 -77 c0 -27 3 -72 5 -102 6 -66 -1 -101 -21 -101 -12 0 -15 21 -15
125 0 104 2 125 15 125 11 0 15 -12 16 -47z m132 -69 c7 -121 5 -134 -17 -134
-9 0 -15 30 -20 109 -6 112 -3 141 19 141 8 0 14 -34 18 -116z m1391 86 c11
-11 -1 -30 -19 -30 -11 0 -15 -23 -17 -107 -2 -88 -6 -108 -18 -108 -12 0 -16
21 -20 105 l-5 105 -27 3 -28 3 0 -105 c0 -99 -1 -106 -20 -106 -17 0 -20 7
-20 50 l0 50 -34 0 c-26 0 -35 -5 -39 -21 -5 -20 -7 -20 -31 -4 -28 19 -45 57
-27 63 17 6 14 72 -3 72 -16 0 -25 19 -19 37 4 9 44 10 161 6 87 -3 161 -9
166 -13z m1834 -157 c-3 -120 -4 -128 -23 -128 -19 0 -20 8 -23 105 -3 125 1
150 28 150 20 0 20 -6 18 -127z m136 22 c5 -124 0 -155 -25 -155 -18 0 -19 9
-19 123 0 125 3 140 27 135 10 -2 14 -31 17 -103z m-3629 -260 c66 -9 199 -28
295 -43 162 -25 197 -27 475 -27 296 1 449 11 795 51 154 18 359 14 525 -11
55 -9 159 -25 230 -36 416 -64 848 -65 1180 -3 130 25 387 24 480 0 96 -25
113 -37 107 -75 -2 -17 -7 -31 -11 -31 -3 0 -31 10 -61 23 -51 20 -70 22 -245
21 -146 0 -237 -7 -395 -28 -287 -38 -385 -42 -575 -22 -288 30 -427 46 -655
78 -295 41 -485 42 -815 3 -404 -46 -760 -44 -1040 6 -294 53 -622 69 -715 36
-48 -17 -56 -16 -47 7 9 23 50 46 98 55 72 14 246 12 374 -4z"/>
<path d="M1930 955 c0 -33 2 -35 35 -35 33 0 35 2 35 35 0 33 -2 35 -35 35
-33 0 -35 -2 -35 -35z"/>
<path d="M3578 1059 c-10 -5 -18 -19 -18 -29 0 -18 7 -20 75 -20 79 0 93 10
48 34 -41 20 -86 27 -105 15z"/>
<path d="M3280 941 c0 -18 -9 -40 -20 -51 -11 -11 -20 -24 -20 -29 0 -14 42
-18 68 -7 20 9 23 16 20 60 -3 44 -6 51 -25 54 -20 3 -23 -1 -23 -27z"/>
<path d="M4090 921 c0 -22 5 -30 23 -33 35 -7 47 1 47 33 0 27 -3 29 -35 29
-32 0 -35 -3 -35 -29z"/>
<path d="M4340 910 c0 -17 -9 -39 -21 -51 -24 -24 -20 -31 16 -31 39 0 55 19
55 68 0 40 -2 44 -25 44 -21 0 -25 -5 -25 -30z"/>
<path d="M2617 959 c-9 -34 3 -49 39 -49 32 0 34 2 34 35 0 33 -2 35 -34 35
-26 0 -35 -5 -39 -21z"/>
<path d="M4764 167 c-7 -19 11 -54 34 -65 52 -27 169 -21 302 15 31 8 123 17
210 20 170 6 260 -6 393 -52 50 -18 67 -21 67 -10 0 81 -307 131 -560 89 -194
-31 -384 -28 -427 8 -9 7 -14 6 -19 -5z"/>
<path d="M2088 92 c-6 -21 1 -42 13 -42 12 0 12 47 0 54 -5 3 -11 -2 -13 -12z"/>
</g>
</svg>
