<?xml version="1.0" standalone="no"?>
<!DOCTYPE svg PUBLIC "-//W3C//DTD SVG 20010904//EN"
 "http://www.w3.org/TR/2001/REC-SVG-20010904/DTD/svg10.dtd">
<svg version="1.0" xmlns="http://www.w3.org/2000/svg"
 width="500.000000pt" height="500.000000pt" viewBox="0 0 500.000000 500.000000"
 preserveAspectRatio="xMidYMid meet">

<g transform="translate(0.000000,500.000000) scale(0.100000,-0.100000)"
fill="#000000" stroke="none">
<path d="M1611 4299 c-17 -7 -22 -15 -18 -29 3 -11 1 -20 -5 -20 -5 0 -6 -5
-3 -10 4 -6 9 -8 13 -6 4 2 5 -23 4 -56 -3 -43 -1 -58 8 -53 6 4 10 14 9 23
-1 10 -1 33 0 54 1 31 4 35 22 31 14 -4 20 -13 19 -32 -4 -52 -2 -57 16 -39
13 12 14 20 5 37 -10 19 -9 22 14 31 15 6 30 8 35 5 13 -8 -1 -45 -16 -45 -8
0 -14 -5 -14 -11 0 -6 7 -9 15 -5 11 4 15 -2 15 -24 0 -17 4 -30 9 -30 6 0 10
23 9 52 0 30 5 54 11 56 16 5 13 22 -4 22 -8 0 -15 4 -15 10 0 11 -52 40 -72
40 -7 0 5 -11 27 -25 l40 -24 -62 -1 c-51 0 -63 3 -63 16 0 9 9 18 20 21 11 3
20 9 20 14 0 11 -8 11 -39 -2z"/>
<path d="M2775 4260 c3 -5 8 -10 11 -10 2 0 4 5 4 10 0 6 -5 10 -11 10 -5 0
-7 -4 -4 -10z"/>
<path d="M3707 4264 c-10 -11 -8 -84 2 -84 14 0 24 57 14 75 -5 9 -12 12 -16
9z"/>
<path d="M2580 4245 c0 -8 7 -15 15 -15 8 0 15 7 15 15 0 8 -7 15 -15 15 -8 0
-15 -7 -15 -15z"/>
<path d="M3768 4248 c-6 -18 3 -68 13 -68 5 0 9 18 9 40 0 37 -13 55 -22 28z"/>
<path d="M1443 4242 c-7 -4 -10 -16 -9 -27 2 -11 -1 -26 -7 -32 -11 -15 1 -17
22 -4 18 12 41 3 41 -15 0 -7 6 -11 13 -8 8 3 14 11 14 19 0 8 -3 12 -7 10 -3
-2 -12 0 -20 5 -11 7 -11 12 -2 22 20 25 -16 49 -45 30z m30 -8 c9 -9 -12 -46
-23 -39 -6 4 -7 22 -1 43 2 4 18 2 24 -4z"/>
<path d="M1528 4238 c17 -8 26 -8 34 0 9 9 4 12 -22 11 -33 0 -34 -1 -12 -11z"/>
<path d="M1784 4239 c-4 -7 7 -10 32 -7 39 3 39 3 39 -32 0 -29 -4 -36 -22
-38 -16 -2 -23 2 -23 13 0 8 10 20 23 25 l22 10 -24 -3 c-30 -3 -50 -32 -34
-48 7 -7 25 -12 40 -13 19 -1 27 -6 25 -16 -2 -10 0 -12 6 -5 6 6 12 21 14 35
4 32 33 34 32 3 -1 -26 14 -31 22 -8 8 19 -13 45 -36 45 -10 0 -20 7 -24 15
-6 16 -5 16 36 19 14 0 29 4 33 8 4 4 -29 7 -74 7 -45 0 -83 -4 -87 -10z"/>
<path d="M2015 4240 c-3 -5 3 -10 14 -10 12 0 21 5 21 10 0 6 -6 10 -14 10 -8
0 -18 -4 -21 -10z"/>
<path d="M2060 4238 c0 -5 16 -8 37 -6 22 2 38 -2 40 -9 3 -9 -6 -13 -26 -13
-26 0 -29 -3 -25 -24 6 -37 -15 -42 -42 -10 -13 16 -23 24 -24 17 0 -15 39
-53 54 -53 20 0 39 18 32 29 -10 16 2 31 19 24 9 -3 15 -19 15 -40 0 -20 4
-32 10 -28 6 3 10 28 10 56 l0 49 55 0 c42 0 55 -3 55 -15 0 -10 -10 -15 -34
-15 -39 0 -52 -12 -32 -29 10 -8 16 -9 21 -1 3 5 15 10 26 10 14 0 19 -7 19
-30 0 -16 5 -30 10 -30 6 0 10 24 10 54 0 49 2 55 23 58 41 6 87 -4 87 -18 0
-12 -37 -20 -56 -11 -15 6 -24 -33 -12 -53 17 -27 24 -25 23 8 0 21 5 28 23
30 19 3 22 -1 22 -32 0 -20 5 -36 10 -36 6 0 10 25 10 55 0 37 4 55 13 55 8 0
7 3 -3 10 -20 12 -370 11 -370 -2z"/>
<path d="M2464 4234 c3 -9 6 -38 6 -65 0 -28 5 -49 11 -49 6 0 9 21 7 53 -2
37 1 55 12 64 13 10 10 12 -14 13 -22 0 -27 -4 -22 -16z"/>
<path d="M2700 4240 c0 -5 17 -10 39 -10 35 0 39 -3 43 -29 3 -23 -1 -32 -18
-40 -16 -7 -25 -6 -33 2 -11 14 -3 31 19 40 10 4 9 6 -6 6 -26 1 -46 -21 -38
-42 7 -20 32 -29 55 -22 13 4 19 1 19 -9 0 -9 4 -16 9 -16 4 0 9 23 10 51 0
29 5 57 11 64 8 10 -3 13 -50 14 -34 1 -60 -3 -60 -9z"/>
<path d="M2841 4236 c-9 -10 -9 -16 -1 -21 6 -4 14 -4 17 -1 4 3 0 6 -7 6 -10
0 -11 3 -3 11 6 6 16 8 22 5 14 -9 14 -43 1 -51 -8 -5 -7 -11 1 -21 13 -16 33
-9 23 8 -4 6 -2 8 4 4 6 -3 13 -2 17 4 3 5 1 10 -4 10 -6 0 -11 8 -11 18 0 37
-37 54 -59 28z"/>
<path d="M2924 4238 c-5 -7 -3 -8 5 -3 10 5 12 -2 10 -26 -4 -57 1 -89 12 -89
6 0 9 19 8 50 -2 27 0 53 4 56 13 13 7 24 -12 24 -11 0 -23 -5 -27 -12z"/>
<path d="M2985 4241 c-3 -6 22 -9 60 -8 36 1 65 5 65 10 0 10 -118 9 -125 -2z"/>
<path d="M3191 4241 c-15 -10 -7 -31 12 -30 8 0 8 2 -1 6 -10 4 -10 8 -1 19
13 16 10 18 -10 5z"/>
<path d="M3220 4242 c0 -6 4 -13 10 -17 10 -6 2 -36 -14 -47 -6 -4 -3 -10 7
-14 24 -9 46 11 30 27 -6 6 -9 17 -7 24 3 6 -2 18 -11 25 -9 8 -15 8 -15 2z"/>
<path d="M3270 4238 c0 -4 6 -8 13 -8 7 0 13 -9 13 -20 0 -11 -6 -20 -13 -20
-7 0 -13 -4 -13 -10 0 -5 5 -10 10 -10 6 0 10 -11 10 -25 0 -14 4 -25 9 -25 4
0 8 12 9 28 0 84 0 82 37 82 19 0 35 4 35 8 0 4 -25 8 -55 8 -30 0 -55 -3 -55
-8z"/>
<path d="M3390 4241 c0 -4 14 -7 30 -6 25 1 30 -2 30 -21 0 -17 -4 -21 -20
-17 -30 8 -25 -18 10 -52 31 -29 42 -25 15 5 -14 16 -14 20 2 48 19 33 45 41
102 32 33 -5 34 -6 17 -22 -10 -10 -13 -18 -7 -18 6 0 11 -13 11 -29 0 -17 5
-33 11 -36 6 -5 9 10 8 43 -1 28 3 57 9 65 10 12 -5 14 -103 15 -63 1 -115 -2
-115 -7z"/>
<path d="M3068 4198 c-2 -25 -8 -34 -25 -36 -16 -2 -23 2 -23 13 0 8 10 20 23
25 21 8 21 9 -5 9 -19 1 -29 -5 -34 -21 -7 -25 19 -50 42 -41 8 3 21 -3 29
-13 13 -17 14 -13 15 39 0 60 -17 80 -22 25z"/>
<path d="M1528 4198 c-5 -29 6 -86 14 -73 9 15 8 95 -1 95 -5 0 -10 -10 -13
-22z"/>
<path d="M2593 4195 c0 -14 3 -25 8 -25 5 0 9 11 9 25 0 14 -4 25 -9 25 -5 0
-8 -11 -8 -25z"/>
<path d="M3363 4170 c-1 -27 3 -50 8 -50 5 0 9 23 9 50 0 28 -4 50 -8 50 -5 0
-9 -22 -9 -50z"/>
<path d="M3509 4198 c-7 -25 -3 -40 13 -55 20 -18 21 -18 9 4 -6 12 -8 29 -5
37 3 9 1 16 -5 16 -6 0 -11 -1 -12 -2z"/>
<path d="M1460 4139 c0 -5 5 -7 10 -4 6 3 10 8 10 11 0 2 -4 4 -10 4 -5 0 -10
-5 -10 -11z"/>
<path d="M2586 4143 c-11 -11 -7 -20 9 -20 8 0 15 4 15 8 0 11 -16 20 -24 12z"/>
<path d="M3700 4135 c0 -8 7 -15 15 -15 9 0 12 6 9 15 -4 8 -10 15 -15 15 -5
0 -9 -7 -9 -15z"/>
<path d="M3770 4140 c0 -5 5 -10 10 -10 6 0 10 5 10 10 0 6 -4 10 -10 10 -5 0
-10 -4 -10 -10z"/>
<path d="M2731 3921 c13 -11 26 -17 29 -14 6 6 -30 33 -43 33 -5 0 1 -9 14
-19z"/>
<path d="M2560 3902 c0 -5 18 -12 40 -16 38 -6 40 -8 34 -34 -9 -38 -21 -49
-41 -36 -22 14 -18 28 9 34 19 5 20 7 6 12 -9 4 -24 0 -35 -7 -14 -11 -16 -18
-7 -32 6 -10 21 -19 33 -21 11 -2 21 -10 21 -18 0 -8 5 -14 10 -14 6 0 10 7
10 15 0 27 1 30 16 38 21 12 33 0 27 -26 -5 -17 -3 -19 7 -11 18 18 8 49 -18
52 -16 3 -22 8 -18 19 3 8 6 16 6 17 0 1 19 0 43 -4 23 -3 41 -10 41 -15 -1
-6 -5 -29 -9 -52 -4 -24 -3 -43 2 -43 5 0 9 8 10 18 6 53 17 82 31 82 13 0 12
3 -3 14 -11 8 -23 12 -28 9 -7 -4 -131 12 -169 23 -10 3 -18 1 -18 -4z"/>
<path d="M2325 3889 c-44 -9 -50 -11 -142 -35 -61 -16 -90 -36 -38 -26 20 3
25 0 25 -17 0 -11 -5 -20 -11 -18 -6 1 -13 -2 -15 -8 -4 -11 65 -49 74 -41 2
3 -8 10 -23 16 -22 8 -25 14 -17 22 7 7 12 25 12 40 0 20 5 28 18 28 14 0 22
-13 32 -50 7 -27 17 -50 22 -50 11 0 10 12 -7 60 -8 23 -15 44 -15 45 0 2 19
6 43 10 23 4 49 9 57 10 12 2 15 -4 12 -31 -5 -41 -29 -65 -43 -43 -13 22 -11
29 14 39 l22 9 -22 0 c-19 1 -43 -24 -43 -43 0 -15 41 -26 60 -16 16 9 20 8
20 -7 0 -13 3 -14 12 -5 9 9 10 19 1 42 -8 22 -8 35 3 54 14 29 14 29 -51 15z"/>
<path d="M2409 3893 c-1 -5 0 -21 1 -38 4 -66 70 -66 70 0 0 24 5 35 15 35 11
0 15 -11 15 -42 0 -24 5 -50 10 -58 7 -11 10 1 10 42 0 36 5 58 13 61 6 3 -21
6 -60 6 -40 1 -73 -2 -74 -6z m51 -38 c0 -40 -24 -49 -34 -12 -10 37 -7 47 14
47 16 0 20 -7 20 -35z"/>
<path d="M2820 3845 c14 -8 34 -14 45 -14 16 0 17 1 5 8 -8 5 -28 11 -45 15
l-30 6 25 -15z"/>
<path d="M2892 3818 c3 -7 19 -16 37 -21 35 -9 34 -5 18 -74 -2 -7 -6 -16 -10
-19 -13 -13 -7 -27 6 -15 8 6 19 29 26 51 7 22 16 38 21 35 6 -4 10 -1 10 4 0
6 -2 11 -5 11 -2 0 -27 9 -56 20 -33 14 -49 16 -47 8z"/>
<path d="M2792 3808 c-27 -27 -6 -68 35 -68 13 0 23 -4 23 -9 0 -21 35 -22 52
-1 24 29 6 72 -27 64 -13 -3 -27 1 -34 10 -16 19 -33 20 -49 4z m45 -38 c-13
-22 -17 -23 -33 -12 -8 4 -8 15 -3 30 7 19 12 21 29 12 17 -9 18 -14 7 -30z
m57 1 c9 -13 -4 -41 -18 -41 -7 0 -17 5 -24 12 -9 9 -7 14 6 24 20 16 29 17
36 5z"/>
<path d="M1979 3766 c-59 -33 -159 -104 -159 -113 0 -3 15 6 34 21 46 35 82
35 58 0 -4 -6 -17 -16 -29 -23 -13 -6 -23 -20 -23 -31 0 -21 17 -36 28 -25 4
4 2 10 -5 12 -20 7 -3 34 18 28 14 -5 19 -1 19 14 0 30 16 33 28 6 7 -14 18
-25 27 -25 10 0 6 12 -16 44 -33 46 -33 60 2 69 18 5 20 2 16 -19 -3 -19 1
-28 18 -36 27 -12 69 6 60 25 -4 7 0 4 8 -5 26 -33 28 -18 2 31 -18 36 -21 51
-12 54 8 4 7 5 -3 5 -8 0 -40 -14 -71 -32z m61 -15 c12 -23 5 -47 -16 -55 -16
-6 -38 39 -30 61 8 19 34 16 46 -6z"/>
<path d="M3070 3734 c0 -3 11 -15 25 -26 22 -17 37 -55 18 -46 -5 2 -21 10
-37 18 -26 13 -29 12 -42 -5 -16 -22 -18 -45 -4 -45 6 0 10 7 10 15 0 23 26
29 52 11 12 -9 17 -16 10 -16 -7 0 -11 -4 -8 -9 3 -5 -1 -11 -9 -15 -17 -6
-21 -26 -5 -26 5 0 20 18 32 40 24 41 36 48 55 29 8 -8 4 -22 -18 -52 -33 -46
-38 -68 -9 -42 11 10 18 20 15 23 -3 3 8 15 25 27 29 21 29 22 9 38 -35 30
-119 87 -119 81z"/>
<path d="M1743 3587 c-70 -70 -124 -143 -98 -133 13 5 15 -1 13 -31 -2 -29 1
-36 17 -39 25 -4 65 22 65 41 0 8 -7 15 -16 15 -10 0 -14 -6 -11 -14 8 -19
-16 -38 -37 -30 -12 5 -13 10 -5 26 7 14 7 23 -1 34 -10 11 -9 19 4 39 9 14
20 25 25 25 9 0 27 -19 33 -35 5 -17 29 -14 49 6 11 11 25 16 36 12 13 -4 11
0 -6 15 -13 12 -20 22 -15 22 5 0 -2 7 -14 16 -26 18 -29 39 -6 48 18 7 37 -5
71 -44 12 -14 22 -20 23 -14 0 7 -16 26 -35 43 -22 19 -33 36 -29 46 9 23 4
19 -63 -48z m31 -48 c18 -27 11 -46 -19 -51 -15 -3 -22 -1 -19 7 3 7 -1 19 -9
26 -7 8 -12 20 -9 27 6 19 39 14 56 -9z"/>
<path d="M2388 3633 c6 -2 18 -2 25 0 6 3 1 5 -13 5 -14 0 -19 -2 -12 -5z"/>
<path d="M2578 3633 c6 -2 18 -2 25 0 6 3 1 5 -13 5 -14 0 -19 -2 -12 -5z"/>
<path d="M2328 3623 c6 -2 18 -2 25 0 6 3 1 5 -13 5 -14 0 -19 -2 -12 -5z"/>
<path d="M2648 3623 c6 -2 18 -2 25 0 6 3 1 5 -13 5 -14 0 -19 -2 -12 -5z"/>
<path d="M1900 3589 c0 -5 5 -7 10 -4 6 3 10 8 10 11 0 2 -4 4 -10 4 -5 0 -10
-5 -10 -11z"/>
<path d="M3326 3495 c25 -31 34 -49 27 -56 -7 -7 -16 -2 -27 16 -18 28 -36 25
-36 -5 0 -13 -5 -17 -15 -14 -18 7 -20 45 -3 62 9 9 9 12 0 12 -15 0 -33 -45
-26 -64 9 -23 35 -28 54 -11 16 14 18 14 24 0 5 -15 -27 -57 -38 -49 -4 2 -2
-1 4 -8 7 -8 17 -4 36 15 24 24 43 32 66 28 5 0 -13 26 -39 59 -25 33 -50 60
-55 60 -5 0 7 -20 28 -45z"/>
<path d="M2390 3490 c-99 -18 -195 -84 -247 -172 -28 -47 -33 -65 -39 -155 -6
-93 -5 -103 10 -103 9 0 28 -11 41 -24 13 -13 26 -21 29 -18 3 3 6 0 6 -6 0
-7 6 -12 14 -12 21 0 30 -19 12 -26 -10 -4 -27 6 -45 24 -16 16 -46 37 -66 46
-33 16 -38 16 -60 2 -13 -9 -30 -34 -36 -56 -11 -38 -10 -44 25 -112 39 -75
87 -134 117 -143 23 -8 33 -76 15 -112 -24 -49 -44 -123 -35 -129 5 -3 9 3 9
13 0 11 7 28 16 39 15 19 15 18 9 -3 -4 -14 6 -46 28 -90 19 -37 42 -91 51
-120 20 -61 101 -144 138 -142 39 2 82 14 80 22 -5 17 -1 19 14 6 17 -14 94
-20 94 -7 0 8 41 23 55 20 6 -1 1 5 -9 13 -22 16 -22 16 12 20 17 2 22 -2 18
-14 -5 -14 -5 -14 6 -1 7 8 24 15 38 16 20 1 25 -4 25 -23 0 -12 -3 -23 -7
-23 -5 0 -8 -4 -8 -9 0 -12 132 -23 144 -11 12 12 -60 160 -86 179 -17 11 -17
15 -5 30 8 9 18 23 22 31 7 12 6 13 -6 3 -12 -10 -20 -9 -38 3 -13 9 -32 14
-44 10 -22 -6 -107 23 -107 37 0 4 -4 7 -10 7 -15 0 -50 38 -50 54 0 18 18 15
49 -6 14 -10 27 -15 30 -12 3 3 1 8 -4 12 -10 7 -35 48 -35 57 0 10 67 5 93
-7 30 -14 37 -30 10 -23 -10 3 -4 -1 12 -9 26 -12 30 -12 33 0 2 8 14 14 27
14 13 0 30 3 39 6 13 5 16 -2 16 -35 0 -23 4 -41 8 -41 12 0 32 47 32 75 0 14
6 25 14 25 7 0 25 23 39 50 30 58 28 110 -4 110 -15 0 -19 -7 -19 -35 0 -20
-7 -49 -15 -65 -15 -29 -52 -57 -62 -46 -9 9 8 26 27 26 18 0 34 23 23 34 -3
3 -28 9 -56 12 -29 4 -60 16 -75 29 -23 20 -25 25 -13 39 8 9 21 14 29 11 12
-4 12 -2 4 8 -7 8 -8 17 -4 22 4 4 -5 0 -19 -9 -14 -9 -43 -15 -65 -15 -21 1
-52 -4 -67 -10 -45 -18 -90 -13 -130 14 -30 21 -36 31 -33 51 6 31 -16 42 -53
27 -35 -13 -51 -6 -51 20 0 12 -7 34 -14 50 -14 25 -13 27 4 27 10 0 31 -5 46
-10 40 -16 54 3 25 34 -19 20 -20 24 -6 30 9 3 13 10 10 16 -9 14 -42 12 -48
-2 -3 -8 -6 -6 -6 4 -1 12 -6 15 -17 11 -14 -5 -15 -3 -5 16 7 12 10 25 8 29
-3 4 -2 15 2 25 6 17 9 16 34 -9 28 -27 71 -54 89 -54 10 0 38 -25 38 -34 0
-3 -8 -3 -17 1 -14 5 -14 2 3 -13 11 -10 19 -25 16 -33 -2 -8 0 -11 5 -8 5 3
9 26 8 50 -2 33 2 47 16 56 12 7 19 7 19 1 0 -19 65 -11 78 10 7 11 20 20 30
20 9 0 25 7 36 15 18 13 17 14 -5 19 -13 3 -37 4 -54 3 -37 -3 -65 9 -65 28 0
8 -6 15 -12 16 -21 1 -41 6 -73 19 l-30 11 33 28 c21 19 32 38 32 55 0 23 -3
26 -34 23 -19 -1 -32 -5 -29 -9 2 -5 0 -8 -5 -8 -13 0 -24 29 -15 42 3 6 2 8
-3 5 -6 -3 -16 -2 -23 3 -11 6 -9 13 8 31 14 15 20 18 16 8 -4 -10 -1 -20 6
-25 8 -4 10 -3 5 4 -4 7 -3 12 2 12 5 0 22 12 37 27 16 17 26 22 25 13 -5 -34
-1 -41 19 -30 11 5 29 10 40 10 11 0 23 5 27 12 5 7 2 8 -7 3 -8 -5 -11 -4 -6
1 4 4 24 9 43 9 31 0 35 -3 31 -22 -5 -25 11 -31 31 -11 8 8 15 8 27 -2 12
-10 15 -10 15 1 -1 31 -171 110 -229 108 -14 -1 -46 -5 -71 -9z m134 -56 c5
-12 2 -12 -15 -3 -15 8 -19 8 -15 0 4 -6 2 -11 -3 -11 -12 0 -15 23 -5 33 9 9
32 -3 38 -19z m-104 -203 c0 -6 -4 -13 -10 -16 -5 -3 -10 1 -10 9 0 9 5 16 10
16 6 0 10 -4 10 -9z m-90 -25 c0 -3 -4 -8 -10 -11 -5 -3 -10 -1 -10 4 0 6 5
11 10 11 6 0 10 -2 10 -4z m50 -54 c0 -9 9 -23 20 -30 24 -14 26 -32 5 -32 -8
0 -15 3 -15 8 0 4 -15 14 -32 22 -29 13 -31 15 -11 18 14 2 20 8 16 18 -3 8 0
14 6 14 6 0 11 -8 11 -18z m200 -42 c0 -5 -2 -10 -4 -10 -3 0 -8 5 -11 10 -3
6 -1 10 4 10 6 0 11 -4 11 -10z m37 4 c-3 -3 -12 -4 -19 -1 -8 3 -5 6 6 6 11
1 17 -2 13 -5z m-528 -111 c-4 -26 3 -33 26 -27 30 7 34 -11 5 -26 -11 -6 -20
-8 -20 -5 0 3 -11 -2 -25 -11 -25 -16 -25 -16 -25 18 0 19 5 39 12 46 13 13
29 16 27 5z m135 -80 c-7 -55 -13 -70 -29 -70 -23 0 -27 32 -11 71 21 50 46
48 40 -1z m-104 -53 c0 -6 6 -10 13 -8 7 2 14 -1 16 -7 1 -5 7 -16 13 -22 8
-10 4 -13 -15 -13 -37 0 -56 9 -69 34 -10 19 -10 20 5 7 15 -12 17 -11 17 3 0
9 5 16 10 16 6 0 10 -5 10 -10z m93 -75 c18 -13 18 -14 -3 -25 -24 -13 -86 -5
-109 13 -14 12 -2 15 84 25 6 1 18 -5 28 -13z m153 -122 c-7 -17 -8 -17 -17 0
-12 21 -2 44 13 29 6 -6 8 -19 4 -29z m247 20 c-4 -11 -3 -14 5 -9 12 7 52
-13 52 -26 0 -11 -113 -3 -117 8 -3 9 44 43 59 44 4 0 4 -7 1 -17z m57 -332
c0 -14 -26 -39 -45 -43 -26 -6 -32 30 -8 47 16 12 53 9 53 -4z"/>
<path d="M1979 3463 c-13 -16 -12 -17 4 -4 9 7 17 15 17 17 0 8 -8 3 -21 -13z"/>
<path d="M1612 3428 c-5 -7 -20 -31 -32 -53 -19 -34 -20 -38 -4 -24 21 18 43
14 60 -10 14 -19 7 -41 -13 -41 -11 0 -14 7 -10 21 3 13 1 19 -6 16 -20 -6
-20 -45 1 -56 20 -11 41 6 56 44 6 17 9 17 17 5 9 -13 10 -13 6 0 -2 8 -10 15
-18 15 -8 0 -21 7 -30 16 -9 9 -23 19 -30 21 -11 4 -10 10 4 31 18 28 17 37
-1 15z"/>
<path d="M1782 3426 c-18 -7 -30 -15 -27 -18 8 -7 65 14 65 24 0 4 -1 7 -2 7
-2 -1 -18 -7 -36 -13z"/>
<path d="M3075 3410 c10 -11 20 -20 23 -20 3 0 -3 9 -13 20 -10 11 -20 20 -23
20 -3 0 3 -9 13 -20z"/>
<path d="M3417 3365 c29 -53 27 -79 -4 -48 -18 18 -22 19 -27 6 -8 -20 -8 -20
14 -26 29 -7 14 -37 -18 -37 -19 0 -23 -3 -15 -11 16 -16 47 -7 58 19 10 22
35 31 35 12 0 -5 5 -10 10 -10 6 0 -6 32 -26 70 -20 39 -40 70 -44 70 -5 0 3
-20 17 -45z"/>
<path d="M1874 3368 l-19 -23 23 19 c21 18 27 26 19 26 -2 0 -12 -10 -23 -22z"/>
<path d="M3110 3376 c0 -2 8 -10 18 -17 15 -13 16 -12 3 4 -13 16 -21 21 -21
13z"/>
<path d="M3337 3362 c-22 -24 -21 -34 3 -55 12 -10 18 -22 15 -27 -3 -6 -2
-10 3 -10 5 0 10 11 10 25 0 15 -6 25 -14 25 -18 0 -18 24 -1 39 10 8 17 7 26
-2 10 -9 11 -8 6 6 -9 22 -28 22 -48 -1z"/>
<path d="M1503 3340 c-13 -15 -23 -35 -23 -44 0 -20 34 -38 57 -30 16 6 15 5
-2 -10 -16 -13 -17 -15 -3 -10 10 3 34 -3 54 -15 20 -12 39 -19 42 -16 7 6 7
6 -48 41 -25 15 -52 28 -60 29 -37 1 -18 58 25 75 20 9 20 9 0 9 -11 0 -30
-13 -42 -29z"/>
<path d="M3140 3336 c0 -2 8 -10 18 -17 15 -13 16 -12 3 4 -13 16 -21 21 -21
13z"/>
<path d="M1546 3315 c-3 -8 -1 -15 3 -15 5 0 11 7 15 15 3 8 1 15 -3 15 -5 0
-11 -7 -15 -15z"/>
<path d="M1829 3313 c-29 -35 -41 -53 -36 -53 2 0 17 16 31 35 28 36 31 49 5
18z"/>
<path d="M3180 3286 c0 -2 8 -10 18 -17 15 -13 16 -12 3 4 -13 16 -21 21 -21
13z"/>
<path d="M1770 3230 c-6 -11 -8 -20 -6 -20 3 0 10 9 16 20 6 11 8 20 6 20 -3
0 -10 -9 -16 -20z"/>
<path d="M3480 3241 c0 -5 5 -13 10 -16 6 -3 10 -2 10 4 0 5 -4 13 -10 16 -5
3 -10 2 -10 -4z"/>
<path d="M3411 3216 c-10 -11 -10 -20 -1 -37 10 -17 9 -23 -1 -30 -10 -6 -7
-8 11 -8 14 1 33 -2 43 -6 12 -5 17 -3 15 6 -2 7 5 15 15 17 13 2 19 -5 23
-27 4 -17 10 -31 14 -31 4 0 0 25 -8 55 -8 30 -19 55 -23 55 -5 0 -6 -6 -3
-14 7 -19 -49 -39 -65 -23 -6 6 -11 17 -11 23 0 21 17 25 34 8 9 -8 16 -12 16
-7 0 13 -22 33 -36 33 -6 0 -17 -6 -23 -14z"/>
<path d="M1485 3170 c-3 -5 -14 -10 -24 -10 -10 0 -26 -9 -35 -19 -14 -15 -15
-24 -6 -40 6 -12 16 -21 23 -22 41 -2 76 -7 105 -14 20 -5 32 -4 32 3 0 5 -22
15 -50 22 -27 7 -50 16 -50 22 0 5 -7 2 -16 -6 -18 -19 -34 -13 -34 14 0 20
26 34 43 23 6 -4 20 -7 31 -8 12 -1 38 -5 59 -10 22 -4 37 -3 37 2 0 6 -25 15
-55 22 -30 7 -53 17 -50 22 4 5 4 9 1 9 -3 0 -8 -4 -11 -10z"/>
<path d="M3250 3171 c0 -6 4 -13 10 -16 6 -3 7 1 4 9 -7 18 -14 21 -14 7z"/>
<path d="M3581 3113 c-1 -18 -7 -23 -26 -23 -14 0 -25 -4 -25 -10 0 -5 -7 -10
-15 -10 -24 0 -92 -32 -79 -37 6 -2 31 3 55 11 26 9 45 12 47 6 6 -16 22 -11
22 6 0 9 7 22 16 29 9 6 14 20 11 31 -4 17 -5 16 -6 -3z"/>
<path d="M3455 3109 c-4 -6 -5 -13 -2 -16 7 -7 27 6 27 18 0 12 -17 12 -25 -2z"/>
<path d="M1450 3035 c-7 -8 -9 -15 -6 -15 4 0 14 7 22 15 9 8 11 15 6 15 -5 0
-15 -7 -22 -15z"/>
<path d="M1541 3039 c-1 -23 -31 -34 -31 -11 0 13 -3 12 -15 -5 -10 -14 -21
-20 -32 -16 -10 4 -14 2 -9 -5 7 -11 74 -5 89 8 5 4 7 16 4 26 -4 15 -5 16 -6
3z"/>
<path d="M2600 3017 c0 -4 -4 -6 -8 -3 -16 10 -82 -15 -92 -34 -13 -24 -47
-35 -65 -20 -8 7 -20 10 -27 8 -23 -8 106 -50 140 -46 24 3 31 1 28 -9 -10
-25 21 -13 32 12 17 37 16 37 -27 30 -24 -4 -41 -2 -46 4 -7 13 37 33 45 21 9
-14 45 -15 77 -1 28 12 36 11 57 -2 13 -9 26 -29 29 -46 5 -22 12 -31 27 -31
11 0 20 7 20 15 0 8 5 15 11 15 7 0 9 -10 7 -25 -7 -35 7 -31 22 5 13 31 54
60 87 60 17 1 17 1 1 14 -25 18 -72 9 -83 -17 -13 -30 -41 -29 -38 1 2 14 -3
22 -13 22 -8 0 -29 8 -47 17 -33 18 -137 25 -137 10z"/>
<path d="M3549 3019 c-1 -8 -1 -22 0 -31 3 -25 -21 -22 -37 3 -18 28 -26 18
-10 -12 7 -13 22 -26 33 -27 11 -2 23 -9 27 -15 5 -7 5 11 2 38 -7 51 -13 70
-15 44z"/>
<path d="M3453 2998 c-5 -7 -9 -20 -8 -28 1 -8 3 -23 3 -33 1 -10 6 -16 10
-13 5 3 7 19 4 36 -2 18 0 30 7 30 6 0 11 5 11 10 0 14 -16 12 -27 -2z"/>
<path d="M1437 2945 c-8 -46 -8 -156 0 -137 6 15 39 16 49 1 4 -8 9 -8 18 1
13 13 -7 30 -36 30 -12 0 -18 8 -18 24 0 23 2 24 32 15 44 -12 68 -11 68 2 0
7 -10 9 -26 5 -18 -5 -24 -3 -19 4 5 8 -1 11 -16 10 -41 -4 -47 -1 -42 19 5
21 66 34 82 18 5 -5 15 -6 21 -2 20 12 -9 25 -57 25 -24 0 -43 5 -45 12 -3 7
-8 -5 -11 -27z"/>
<path d="M2646 2949 c-15 -12 -25 -28 -22 -35 3 -8 1 -14 -3 -14 -11 0 -33
-61 -26 -68 3 -3 5 -1 5 5 0 6 17 14 38 19 20 4 40 8 45 9 4 2 13 3 21 4 19 1
30 55 16 80 -14 27 -40 27 -74 0z m25 -46 c-8 -15 -10 -15 -11 -2 0 17 10 32
18 25 2 -3 -1 -13 -7 -23z"/>
<path d="M2862 2927 c-12 -12 -23 -38 -24 -57 -3 -33 -1 -35 29 -38 25 -3 32
0 27 11 -3 8 -15 20 -27 26 l-22 11 23 -6 c15 -4 22 -1 22 9 0 8 9 17 21 20
l20 6 -20 20 c-26 26 -23 26 -49 -2z"/>
<path d="M1661 2924 c0 -11 3 -14 6 -6 3 7 2 16 -1 19 -3 4 -6 -2 -5 -13z"/>
<path d="M2380 2931 c0 -6 8 -11 18 -12 14 0 14 -2 -3 -9 l-20 -9 20 -1 c11
-1 35 -1 53 0 17 1 32 -3 32 -9 0 -6 18 -14 40 -17 32 -5 38 -9 29 -20 -8 -10
-6 -11 15 -1 14 7 26 14 26 17 -1 4 -140 53 -192 68 -10 2 -18 -1 -18 -7z"/>
<path d="M3331 2914 c0 -11 3 -14 6 -6 3 7 2 16 -1 19 -3 4 -6 -2 -5 -13z"/>
<path d="M2723 2850 c-6 -17 -7 -30 -2 -30 5 0 14 11 19 24 5 13 15 26 22 29
8 3 5 6 -7 6 -14 1 -24 -9 -32 -29z"/>
<path d="M1653 2800 c0 -36 2 -50 4 -32 2 17 2 47 0 65 -2 17 -4 3 -4 -33z"/>
<path d="M3550 2844 c-13 -7 -27 -10 -30 -6 -8 12 -58 13 -65 2 -3 -5 3 -9 12
-9 59 -1 130 -8 140 -14 14 -9 -1 -88 -23 -122 -9 -14 -18 -25 -20 -25 -2 0
-2 28 1 63 l4 62 -10 -63 c-11 -65 -33 -82 -34 -26 0 26 -3 29 -27 26 -22 -3
-27 0 -22 13 4 9 18 21 33 27 15 6 21 12 13 15 -19 7 -62 -25 -62 -47 0 -11 5
-21 10 -21 6 -1 15 -3 20 -4 6 -1 14 -3 20 -4 5 0 7 -8 4 -16 -4 -9 -19 -15
-40 -15 -53 0 -40 -17 18 -24 29 -4 56 -13 60 -19 6 -9 8 -8 8 2 0 7 11 26 25
43 49 58 59 158 16 158 -11 0 -21 4 -23 8 -1 4 -14 2 -28 -4z"/>
<path d="M3343 2800 c0 -25 2 -35 4 -22 2 12 2 32 0 45 -2 12 -4 2 -4 -23z"/>
<path d="M1439 2726 c-7 -7 7 -96 17 -105 3 -3 9 1 13 8 5 7 14 10 20 7 6 -4
11 -1 11 6 0 9 3 9 10 -2 8 -12 12 -13 19 -2 4 8 11 13 15 13 18 -3 26 0 26 9
0 5 -6 8 -12 6 -7 -3 -32 -7 -54 -10 -36 -5 -42 -3 -47 14 -4 15 1 22 17 26
29 7 58 12 74 13 6 1 12 5 12 10 0 11 -65 3 -92 -10 -12 -6 -17 -4 -20 7 -2 9
-6 13 -9 10z"/>
<path d="M1662 2680 c0 -14 2 -19 5 -12 2 6 2 18 0 25 -3 6 -5 1 -5 -13z"/>
<path d="M3332 2680 c0 -14 2 -19 5 -12 2 6 2 18 0 25 -3 6 -5 1 -5 -13z"/>
<path d="M1672 2620 c0 -14 2 -19 5 -12 2 6 2 18 0 25 -3 6 -5 1 -5 -13z"/>
<path d="M3321 2624 c0 -11 3 -14 6 -6 3 7 2 16 -1 19 -3 4 -6 -2 -5 -13z"/>
<path d="M1458 2585 c2 -14 9 -28 15 -32 7 -4 8 0 4 11 -4 10 -7 24 -7 32 0 8
-4 14 -9 14 -4 0 -6 -11 -3 -25z"/>
<path d="M1616 2595 c-9 -26 -7 -32 5 -12 6 10 9 21 6 23 -2 3 -7 -2 -11 -11z"/>
<path d="M1503 2593 c-13 -2 -23 -9 -23 -15 0 -6 11 -8 25 -6 14 3 22 1 18 -5
-3 -5 0 -8 8 -5 18 6 25 38 7 37 -7 -1 -23 -4 -35 -6z"/>
<path d="M2610 2541 c0 -36 27 -51 91 -51 45 0 61 4 66 15 7 21 -2 28 -35 31
-15 1 -45 7 -67 13 -53 14 -55 14 -55 -8z"/>
<path d="M1537 2531 c-34 -17 -38 -18 -47 -2 -8 13 -9 12 -10 -8 0 -20 4 -23
25 -19 14 3 25 1 25 -3 0 -5 5 -9 10 -9 6 0 9 3 9 8 -3 19 2 33 10 28 12 -8
41 3 41 15 0 14 -23 11 -63 -10z"/>
<path d="M3423 2533 c-22 -8 -14 -20 11 -16 31 6 46 -16 16 -24 -17 -5 -20
-11 -15 -30 6 -25 1 -26 -52 -6 -7 3 -13 1 -13 -4 0 -9 69 -39 83 -35 4 1 7
-5 7 -13 0 -29 18 -15 35 28 27 67 28 74 7 43 -12 -17 -19 -33 -16 -37 2 -4
-3 -10 -11 -13 -21 -8 -32 22 -17 43 22 30 24 41 12 56 -13 15 -25 17 -47 8z"/>
<path d="M1495 2468 c12 -42 60 -138 68 -138 5 0 6 -4 3 -9 -3 -4 4 -17 16
-27 21 -19 21 -19 9 3 -15 29 -14 33 7 33 14 0 15 2 2 9 -8 6 -17 8 -21 5 -4
-2 -13 3 -20 12 -11 14 -10 18 6 30 11 7 27 19 35 26 8 7 16 12 18 10 1 -2 8
-2 15 1 6 2 9 7 5 11 -3 4 -25 -2 -48 -14 -44 -23 -62 -23 -66 1 -4 23 -23 69
-29 69 -4 0 -3 -10 0 -22z"/>
<path d="M1590 2475 c-9 -11 -16 -13 -24 -5 -15 15 -26 12 -20 -5 4 -8 10 -12
15 -9 5 3 9 -1 9 -8 0 -7 9 -4 22 10 12 12 19 24 16 27 -3 3 -11 -2 -18 -10z"/>
<path d="M2081 2394 c0 -11 3 -14 6 -6 3 7 2 16 -1 19 -3 4 -6 -2 -5 -13z"/>
<path d="M3350 2394 c0 -3 20 -14 44 -25 25 -10 46 -24 48 -30 2 -6 9 1 16 16
7 15 8 24 2 20 -6 -4 -27 -1 -48 6 -44 15 -62 19 -62 13z"/>
<path d="M1637 2383 c-4 -3 -7 -16 -6 -27 0 -20 1 -20 10 2 5 13 13 20 19 17
5 -3 10 -1 10 4 0 12 -23 15 -33 4z"/>
<path d="M1780 2353 c0 -6 8 -17 18 -24 16 -13 16 -13 2 6 -8 11 -16 22 -17
24 -2 2 -3 0 -3 -6z"/>
<path d="M3249 2338 c-11 -21 -11 -22 4 -10 17 15 41 7 31 -9 -3 -6 -18 -15
-32 -21 -17 -6 -22 -12 -14 -15 8 -3 18 -1 24 5 10 10 95 -30 110 -52 8 -12 8
-12 42 42 14 23 23 42 18 42 -5 0 -16 -16 -25 -35 -9 -19 -21 -35 -26 -35 -19
0 -22 20 -6 49 13 26 13 31 0 44 -9 10 -23 13 -37 9 -21 -6 -22 -6 -3 -10 33
-6 40 -19 25 -46 l-13 -25 -29 20 c-15 11 -26 25 -22 30 6 11 -13 39 -27 39
-5 0 -14 -10 -20 -22z"/>
<path d="M1690 2334 c0 -13 -6 -15 -27 -10 -19 4 -23 3 -14 -2 20 -14 -8 -22
-34 -9 -19 9 -19 8 -3 -8 16 -17 19 -17 51 -2 33 16 57 47 37 47 -6 0 -10 -7
-10 -16z"/>
<path d="M2072 2320 c0 -14 2 -19 5 -12 2 6 2 18 0 25 -3 6 -5 1 -5 -13z"/>
<path d="M1680 2270 c-34 -33 -57 -38 -66 -15 -4 8 -10 15 -15 15 -5 0 -4 -9
3 -20 7 -11 19 -20 26 -20 7 0 11 -4 8 -9 -3 -5 4 -22 16 -37 31 -42 42 -52
35 -33 -7 20 10 39 34 39 11 0 17 7 16 18 -1 17 -37 26 -37 9 0 -5 -6 -15 -14
-22 -12 -12 -16 -11 -30 4 -15 17 -16 20 -1 34 8 9 22 14 31 10 8 -3 14 -2 13
3 -4 17 13 44 24 37 6 -3 7 -1 3 5 -10 16 -11 16 -46 -18z"/>
<path d="M1840 2266 c0 -2 8 -10 18 -17 15 -13 16 -12 3 4 -13 16 -21 21 -21
13z"/>
<path d="M3133 2248 c-11 -13 -24 -30 -28 -38 -8 -16 -6 -14 34 33 14 15 22
27 19 27 -2 0 -14 -10 -25 -22z"/>
<path d="M3245 2230 c-4 -6 4 -10 19 -10 14 0 27 -4 27 -10 3 -20 5 -25 15
-44 7 -11 16 -16 23 -11 9 5 7 13 -9 27 -17 16 -19 23 -9 34 6 8 10 14 8 15
-33 8 -69 8 -74 -1z"/>
<path d="M3350 2200 c-6 -11 -8 -20 -6 -20 3 0 10 9 16 20 6 11 8 20 6 20 -3
0 -10 -9 -16 -20z"/>
<path d="M1956 2148 c44 -33 53 -36 19 -6 -16 15 -34 28 -39 28 -5 0 4 -10 20
-22z"/>
<path d="M3031 2150 c-13 -11 -19 -20 -14 -20 6 0 18 9 28 20 23 25 17 25 -14
0z"/>
<path d="M2067 2069 c7 -7 15 -10 18 -7 3 3 -2 9 -12 12 -14 6 -15 5 -6 -5z"/>
<path d="M2140 2030 c8 -5 20 -10 25 -10 6 0 3 5 -5 10 -8 5 -19 10 -25 10 -5
0 -3 -5 5 -10z"/>
<path d="M2790 2010 c-8 -5 -10 -10 -5 -10 6 0 17 5 25 10 8 5 11 10 5 10 -5
0 -17 -5 -25 -10z"/>
<path d="M2358 1963 c7 -3 16 -2 19 1 4 3 -2 6 -13 5 -11 0 -14 -3 -6 -6z"/>
<path d="M2628 1963 c7 -3 16 -2 19 1 4 3 -2 6 -13 5 -11 0 -14 -3 -6 -6z"/>
<path d="M2453 1953 c26 -2 67 -2 90 0 23 2 2 3 -48 3 -49 0 -68 -1 -42 -3z"/>
<path d="M2202 1913 c21 -5 32 -34 17 -43 -7 -5 -8 -9 -1 -11 6 -2 12 -25 13
-51 2 -26 6 -45 11 -42 13 8 3 120 -11 138 -8 9 -21 15 -30 15 -14 -1 -14 -2
1 -6z"/>
<path d="M2802 1898 c12 -12 17 -23 11 -25 -7 -3 -8 -16 -3 -38 4 -19 5 -36 3
-39 -3 -3 -2 -13 3 -23 6 -13 10 -3 14 37 6 58 -12 110 -37 110 -8 0 -4 -9 9
-22z"/>
<path d="M2877 1913 c-10 -10 -8 -141 2 -147 5 -4 11 19 13 49 1 30 0 55 -4
55 -13 0 5 39 21 43 12 4 10 5 -5 6 -11 0 -24 -2 -27 -6z"/>
<path d="M2950 1901 c14 -11 30 -21 35 -21 11 0 -7 14 -40 31 -13 7 -12 3 5
-10z"/>
<path d="M3117 1913 c-11 -10 -8 -33 3 -33 6 0 10 6 10 14 0 8 6 17 13 19 8 4
6 6 -4 6 -9 1 -19 -2 -22 -6z"/>
<path d="M1651 1868 c1 -13 5 -34 9 -48 7 -21 8 -19 9 17 1 23 -3 45 -9 48 -6
3 -10 -4 -9 -17z"/>
<path d="M1726 1877 c-5 -9 -5 -29 0 -45 7 -25 8 -26 11 -4 3 12 3 32 0 45 -3
19 -4 20 -11 4z"/>
<path d="M3486 1877 c-5 -9 -5 -29 0 -45 7 -25 8 -26 11 -4 3 12 3 32 0 45 -3
19 -4 20 -11 4z"/>
<path d="M3557 1883 c-4 -3 -6 -25 -6 -47 l2 -41 7 45 c8 48 7 54 -3 43z"/>
<path d="M1863 1863 l37 -4 0 -50 c0 -27 5 -49 10 -49 6 0 10 25 10 55 l0 55
-47 -2 c-44 -1 -45 -2 -10 -5z"/>
<path d="M1953 1859 c14 -8 17 -18 12 -40 -4 -18 -3 -29 4 -29 6 0 11 5 11 10
0 23 39 9 48 -17 8 -25 10 -22 13 30 l4 57 -55 0 c-43 -1 -51 -3 -37 -11z m70
-19 c4 -16 0 -20 -19 -20 -17 0 -24 6 -24 20 0 13 7 20 19 20 10 0 21 -9 24
-20z"/>
<path d="M2088 1863 c15 -3 22 -10 19 -21 -2 -9 -9 -16 -15 -14 -18 3 -14 -23
6 -41 25 -23 39 -22 19 1 -21 23 -15 30 23 24 24 -3 30 -9 30 -30 0 -14 3 -23
6 -19 10 10 13 107 3 107 -5 0 -9 -11 -9 -25 0 -20 -5 -25 -26 -25 -23 0 -26
3 -22 25 5 23 2 25 -26 24 -24 -1 -26 -3 -8 -6z"/>
<path d="M2339 1861 c9 -6 11 -18 6 -40 -6 -29 6 -43 20 -22 10 17 45 8 45
-11 0 -10 4 -18 9 -18 4 0 9 23 10 50 0 40 -3 50 -15 50 -13 0 -14 -3 -5 -13
8 -10 7 -18 -2 -31 -13 -17 -14 -17 -31 0 -18 17 -18 18 0 31 16 12 14 13 -17
13 -23 0 -30 -3 -20 -9z"/>
<path d="M2457 1862 c6 -4 13 -28 14 -54 3 -56 17 -55 16 0 0 21 3 43 7 50 5
8 -2 12 -21 12 -17 0 -23 -3 -16 -8z"/>
<path d="M2578 1863 c12 -2 32 -2 45 0 12 2 2 4 -23 4 -25 0 -35 -2 -22 -4z"/>
<path d="M2698 1863 c55 -4 56 -6 52 -65 -1 -14 3 -29 9 -33 7 -4 11 11 11 44
0 30 5 51 13 54 6 2 -22 4 -63 4 -55 0 -61 -1 -22 -4z"/>
<path d="M2963 1863 c30 -3 37 -8 33 -21 -3 -9 -1 -33 3 -52 9 -34 9 -33 10
17 1 31 6 53 14 56 6 3 -13 5 -43 5 -41 -1 -46 -2 -17 -5z"/>
<path d="M3049 1861 c8 -5 12 -18 9 -29 -4 -13 0 -23 9 -26 11 -5 14 1 11 21
-2 20 2 29 15 31 17 3 23 -20 18 -70 -1 -10 2 -18 6 -18 5 0 10 19 12 42 1 23
7 46 14 50 7 4 -15 8 -48 8 -39 0 -55 -3 -46 -9z"/>
<path d="M3175 1836 c0 -19 4 -38 8 -43 13 -12 27 19 17 38 -11 20 -4 29 22
29 15 0 19 -6 17 -27 -3 -47 0 -73 11 -73 6 0 10 25 10 55 l0 55 -42 0 c-42 0
-43 -1 -43 -34z"/>
<path d="M3298 1861 c8 -5 11 -17 7 -33 -4 -16 -1 -29 9 -37 11 -9 16 -10 16
-2 0 6 -5 11 -11 11 -7 0 -8 7 -4 18 16 40 14 52 -8 52 -16 0 -18 -3 -9 -9z"/>
<path d="M3348 1861 c18 -12 21 -41 6 -56 -9 -8 -11 -15 -5 -15 6 0 11 -7 11
-15 0 -8 5 -15 10 -15 6 0 10 22 10 49 0 30 5 51 13 54 6 3 -3 5 -21 4 -18 0
-29 -3 -24 -6z"/>
<path d="M2693 1831 c-10 -16 -9 -22 4 -33 12 -9 14 -9 9 -1 -4 7 -2 22 4 33
14 25 -1 26 -17 1z"/>
<path d="M2630 1830 c-18 -12 -2 -12 25 0 13 6 15 9 5 9 -8 0 -22 -4 -30 -9z"/>
<path d="M1843 1823 c-17 -6 -16 -28 1 -42 12 -10 13 -8 9 9 -4 13 0 26 8 31
15 9 3 11 -18 2z"/>
<path d="M2581 1820 c-1 -21 19 -40 40 -40 20 0 35 18 24 28 -4 4 -10 1 -12
-5 -7 -20 -29 -15 -41 10 -7 14 -11 17 -11 7z"/>
<path d="M2934 1815 c-3 -8 1 -24 10 -37 9 -12 16 -17 16 -11 0 7 -4 15 -10
18 -17 10 -11 25 13 35 l22 9 -23 0 c-12 1 -25 -6 -28 -14z"/>
<path d="M1655 1770 c-3 -5 -1 -10 4 -10 6 0 11 5 11 10 0 6 -2 10 -4 10 -3 0
-8 -4 -11 -10z"/>
<path d="M3490 1589 c0 -5 5 -7 10 -4 6 3 10 8 10 11 0 2 -4 4 -10 4 -5 0 -10
-5 -10 -11z"/>
<path d="M3460 1580 c0 -5 5 -10 10 -10 6 0 10 5 10 10 0 6 -4 10 -10 10 -5 0
-10 -4 -10 -10z"/>
<path d="M1760 1548 c0 -9 -6 -18 -12 -21 -7 -2 -10 -8 -6 -12 4 -4 15 0 24 9
12 13 14 20 5 29 -8 8 -11 7 -11 -5z"/>
<path d="M3430 1544 c0 -8 5 -12 10 -9 6 4 8 11 5 16 -9 14 -15 11 -15 -7z"/>
<path d="M2376 1513 c9 -21 22 -44 29 -51 10 -11 10 -19 -2 -43 -20 -39 -14
-51 17 -36 19 10 24 20 23 42 -1 16 3 35 8 42 27 31 -18 83 -71 83 -18 0 -18
-2 -4 -37z m64 -21 c0 -15 -2 -15 -10 -2 -13 20 -13 33 0 25 6 -3 10 -14 10
-23z"/>
<path d="M2763 1526 c-26 -22 -26 -25 -14 -52 8 -16 13 -39 12 -51 -1 -14 7
-28 24 -39 35 -23 42 -12 17 30 -18 30 -19 36 -6 47 13 10 44 72 44 85 0 14
-54 0 -77 -20z m17 -27 c-7 -11 -14 -18 -17 -15 -3 3 0 12 7 21 18 21 23 19
10 -6z"/>
<path d="M2913 1538 c-40 -11 -52 -31 -49 -87 2 -43 23 -71 53 -71 10 0 9 8
-4 35 -15 32 -15 36 0 53 9 10 17 25 17 33 0 8 5 20 12 27 17 17 8 20 -29 10z"/>
<path d="M1800 1516 c0 -18 -5 -26 -17 -26 -13 0 -14 -3 -5 -12 8 -8 15 -8 27
2 17 14 20 46 5 55 -6 4 -10 -5 -10 -19z"/>
<path d="M2169 1527 c6 -6 11 -18 11 -26 0 -8 8 -23 17 -33 16 -18 16 -21 1
-49 -16 -27 -16 -29 0 -29 31 0 43 16 47 62 4 34 1 49 -13 60 -20 18 -80 32
-63 15z"/>
<path d="M2275 1503 c9 -21 20 -42 24 -46 5 -5 3 -21 -5 -35 -8 -15 -14 -30
-14 -34 0 -14 28 -8 51 11 19 15 21 22 12 32 -9 9 -9 18 0 36 10 22 8 28 -16
49 -16 13 -37 24 -48 24 -18 0 -19 -2 -4 -37z m54 -17 c-3 -3 -11 5 -18 17
-13 21 -12 21 5 5 10 -10 16 -20 13 -22z"/>
<path d="M3005 1530 c-32 -12 -43 -32 -43 -75 1 -46 13 -65 39 -65 16 0 17 4
8 27 -9 24 -1 54 27 105 7 12 -10 16 -31 8z m-17 -40 c-7 -10 -14 -17 -17 -15
-4 4 18 35 25 35 2 0 -1 -9 -8 -20z"/>
<path d="M2091 1508 c5 -10 13 -27 19 -38 5 -10 7 -34 3 -52 -6 -32 -6 -33 17
-17 15 10 24 26 25 49 4 47 -8 67 -44 72 -25 4 -28 2 -20 -14z"/>
<path d="M3095 1522 c-36 -8 -45 -23 -43 -70 3 -36 7 -46 26 -53 24 -9 29 4
13 30 -6 9 -2 28 11 53 23 43 22 46 -7 40z"/>
<path d="M3385 1520 c-8 -12 16 -50 32 -50 7 0 13 5 13 10 0 6 -6 10 -14 10
-9 0 -12 7 -9 20 5 20 -11 28 -22 10z"/>
<path d="M3450 1520 c0 -5 5 -10 10 -10 6 0 10 5 10 10 0 6 -4 10 -10 10 -5 0
-10 -4 -10 -10z"/>
<path d="M1850 1496 c0 -16 -8 -35 -17 -42 -17 -13 -17 -13 2 -14 28 0 47 43
29 67 -12 16 -13 16 -14 -11z"/>
<path d="M2022 1490 c5 -17 14 -32 19 -35 5 -3 3 -15 -3 -25 -15 -24 -3 -38
20 -24 26 17 26 80 -1 99 -35 25 -48 20 -35 -15z"/>
<path d="M3146 1504 c-28 -28 -13 -104 21 -104 11 0 11 4 3 21 -9 16 -8 28 4
54 9 18 16 36 16 39 0 12 -29 6 -44 -10z"/>
<path d="M3342 1508 c-18 -22 -5 -68 19 -68 10 0 19 5 19 10 0 6 -4 10 -9 10
-6 0 -11 14 -13 32 -3 27 -5 29 -16 16z"/>
<path d="M1898 1504 c-4 -3 -3 -16 2 -28 5 -13 4 -29 -1 -37 -13 -22 -11 -28
10 -22 27 7 34 53 12 76 -9 10 -20 15 -23 11z"/>
<path d="M1950 1503 c1 -5 7 -19 15 -33 9 -18 10 -29 3 -38 -14 -16 -4 -26 17
-19 18 8 21 67 3 85 -13 13 -38 16 -38 5z"/>
<path d="M3212 1498 c-5 -7 -9 -29 -8 -48 1 -28 6 -36 25 -38 20 -3 21 -1 11
17 -8 17 -8 26 5 43 8 13 15 26 15 30 0 13 -37 9 -48 -4z"/>
<path d="M3291 1501 c-23 -14 -23 -69 -1 -81 20 -11 38 4 20 15 -6 4 -8 21 -4
41 7 37 6 38 -15 25z"/>
</g>
</svg>
